<?xml version="1.0" encoding="utf-8"?>
<!-- Generator: Adobe Illustrator 16.0.0, SVG Export Plug-In . SVG Version: 6.00 Build 0)  -->
<!DOCTYPE svg PUBLIC "-//W3C//DTD SVG 1.1//EN" "http://www.w3.org/Graphics/SVG/1.1/DTD/svg11.dtd">
<svg version="1.1" xmlns="http://www.w3.org/2000/svg" xmlns:xlink="http://www.w3.org/1999/xlink" x="0px" y="0px" width="72px"
	 height="72px" viewBox="0 0 72 72" enable-background="new 0 0 72 72" xml:space="preserve">
<g id="Background" display="none">
	<rect display="inline" fill="#BC2C43" width="72" height="72"/>
</g>
<g id="Text">
	<polyline fill="none" stroke="#171952" stroke-width="1.8341" stroke-miterlimit="10" points="27.4785,12.5547 18.7871,12.5547 
		18.7871,59.3555 27.4785,59.3555 	"/>
	<polyline fill="none" stroke="#171952" stroke-width="1.8341" stroke-miterlimit="10" points="45.2285,59.3555 53.2129,59.3555 
		53.2129,12.5547 45.2285,12.5547 	"/>
	<g>
		<g>
			<path fill="#DFE4E8" d="M30.7446,59.2344c-0.0718,0.0957-0.1079,0.1377-0.1436,0.1855c-0.1318,0.168-0.3301,0.21-0.4917,0.0957
				c-0.1563-0.1074-0.2041-0.335-0.0723-0.4854c0.2822-0.3115,0.5698-0.6172,0.8818-0.8994
				c0.0659-0.0664,0.2456-0.0723,0.3477-0.0361c0.0781,0.0303,0.1621,0.168,0.1621,0.2578c0,0.4922-0.0244,0.9893-0.0303,1.4814
				c0,0.2822,0.0239,0.5635,0.0303,0.8457c0.0059,0.3232,0.0059,0.6416,0,0.9648c0,0.2041-0.0122,0.4082-0.042,0.6064
				c-0.0063,0.0596-0.0903,0.1494-0.1499,0.1553c-0.1143,0.0186-0.2822,0.0303-0.3481-0.0361
				c-0.0898-0.084-0.1377-0.2393-0.1377-0.3652c-0.0181-0.6719-0.0063-1.3438-0.0063-2.0088V59.2344z"/>
			<path fill="#DFE4E8" d="M35.7075,60.4336c-0.0181,0.2998-0.0718,0.6113-0.042,0.9053c0.042,0.4199-0.2695,0.9297-0.7856,1.002
				c-0.3057,0.0361-0.6294,0.042-0.9414,0.0059c-0.3418-0.0361-0.7017-0.5098-0.7192-0.8936
				c-0.0063-0.1504,0.0176-0.3057,0.0537-0.4502c0.0303-0.1016,0.0659-0.2393,0.2339-0.2158
				c0.1738,0.0244,0.3301,0.084,0.3657,0.2764c0.0181,0.0957,0.0122,0.1973,0.0181,0.2998
				c0.0181,0.2578,0.1558,0.3955,0.4199,0.3838c0.1738-0.0059,0.3477-0.0303,0.5098-0.0781
				c0.0718-0.0244,0.1616-0.1318,0.1616-0.2041c0.0181-0.3359,0.0063-0.6777,0.0063-1.0557c-0.2583,0-0.5278,0.0068-0.7979,0
				c-0.6294-0.0059-0.9653-0.3174-0.9653-0.9229c0-0.3301,0.0479-0.6543,0.084-0.9775c0.0181-0.2041,0.186-0.2939,0.3477-0.3359
				c0.5039-0.1436,1.0195-0.1855,1.5293-0.0059c0.3296,0.1133,0.4795,0.3955,0.4736,0.7432
				c-0.0059,0.1982,0.0298,0.4023,0.0479,0.5996v0.1318c-0.1196,0.2227-0.1016,0.4385,0,0.6602V60.4336z M33.8965,59.2041
				c0,0.1143-0.0176,0.2344,0.0063,0.3477c0.0181,0.0664,0.0898,0.168,0.1499,0.1738c0.2456,0.0361,0.4976,0.0479,0.7437,0.042
				c0.0659-0.0059,0.1797-0.0898,0.1855-0.1436c0.0303-0.2402,0.0361-0.4795,0.0303-0.7197c0-0.1436-0.084-0.2275-0.2578-0.1914
				c-0.0962,0.0234-0.21,0.0234-0.312,0.0117C33.8906,58.6641,33.8848,58.6641,33.8965,59.2041z"/>
			<path fill="#DFE4E8" d="M37.4922,61.8848c0.5332,0,1.0195-0.0176,1.5059,0.0059c0.2695,0.0117,0.3594,0.1855,0.2754,0.4316
				c-0.042,0.1143-0.1143,0.1797-0.2461,0.1797c-0.5996,0-1.1934,0.0127-1.7871,0.0068c-0.2939,0-0.4194-0.126-0.3955-0.4082
				c0.0356-0.4141,0.0601-0.834,0.1377-1.2354c0.1016-0.582,0.5762-0.959,1.1758-1.001c0.3535-0.0303,0.4854-0.1387,0.5039-0.4141
				c0.0234-0.4619-0.0898-0.6416-0.4561-0.7021c-0.3779-0.0654-0.5879,0.0605-0.6904,0.4141
				c-0.0713,0.2461-0.1436,0.3057-0.3232,0.2822c-0.21-0.0361-0.3237-0.1738-0.3237-0.3838
				c0.0117-0.498,0.4614-0.9297,0.9956-0.9473c0.1494-0.0068,0.3057-0.0127,0.4561-0.0068c0.5039,0,0.8867,0.3486,0.9824,0.8281
				c0.0723,0.3232,0.0303,0.623-0.0781,0.917c-0.0586,0.1621-0.2266,0.2822-0.3291,0.4316
				c-0.1201,0.1865-0.2939,0.1748-0.4912,0.1865c-0.3848,0.0117-0.7559,0.1318-0.792,0.6357
				C37.5996,61.3447,37.54,61.585,37.4922,61.8848z"/>
			<path fill="#DFE4E8" d="M41.2617,59.2578c0.168,0,0.3057-0.0059,0.4434,0c0.8164,0.0127,1.3496,0.6064,1.2715,1.3916
				c-0.0293,0.2881,0.0244,0.5879-0.0234,0.8691c-0.1563,0.8164-0.8281,1.1455-1.5537,0.9482
				c-0.5342-0.1445-0.7793-0.54-0.8994-1.0322c-0.0352-0.1738,0.1504-0.3711,0.3477-0.3896
				c0.1855-0.0117,0.3242,0.0967,0.3301,0.3125c0,0.3291,0.2158,0.5518,0.6475,0.5098c0.2881-0.0244,0.4678-0.1748,0.4736-0.4561
				c0.0117-0.3418,0.0117-0.6895,0-1.0313c-0.0059-0.2227-0.2461-0.4736-0.4736-0.4922c-0.2939-0.0176-0.5869-0.0303-0.8633,0.1143
				c-0.0898,0.042-0.2393,0.0234-0.3359-0.0186c-0.1201-0.0537-0.1143-0.1855-0.1201-0.3174c0-0.4014,0.1982-0.7432,0.2637-1.1211
				c0.0547-0.2822,0.1387-0.3359,0.4316-0.3418c0.3848,0,0.7734,0.0059,1.1582,0.0176c0.2217,0.0059,0.3301,0.0957,0.3418,0.2637
				c0.0117,0.1865-0.1143,0.3301-0.3301,0.3418c-0.2881,0.0186-0.5762,0.0186-0.8633,0.0244c-0.042,0-0.084,0.0117-0.1445,0.0176
				L41.2617,59.2578z"/>
		</g>
	</g>
	<g>
		<g>
			<path fill="#DFE4E8" d="M32.2544,9.3071c0.228,0.0117,0.4561,0.0293,0.6836,0.042c0.21,0.0117,0.4141,0.0176,0.624,0.041
				c0.1558,0.0186,0.2397,0.126,0.2275,0.2822c-0.0117,0.1563-0.084,0.2764-0.2637,0.2822
				c-0.2158,0.0117-0.4316,0.0117-0.6475,0.0117h-0.4077c-0.0063,0.1982-0.0181,0.3779-0.0303,0.6113
				c0.2339,0.0127,0.4619,0.0361,0.6958,0.0361c0.2998-0.0059,0.4614,0.084,0.4678,0.2822
				c0.0117,0.2041-0.1738,0.3359-0.4497,0.3301h-0.7139c0,0.6113,0,1.2109,0,1.8408h0.7915c0.0781,0,0.1563-0.0127,0.2339,0
				c0.2222,0.0176,0.312,0.1553,0.2817,0.4131c-0.0298,0.21-0.1079,0.2402-0.3477,0.2285c-0.4497-0.0127-0.9053,0-1.355,0
				c-0.084,0-0.1743,0.0059-0.252-0.0244c-0.2759-0.1016-0.2759-0.3721-0.0122-0.5938v-2.2666c0-0.2275,0.0303-0.4561,0.0239-0.6836
				c-0.0059-0.0723-0.1616-0.1377-0.1978-0.21c-0.0479-0.084-0.0718-0.21-0.042-0.2578c0.0601-0.126,0.0898-0.2217,0.1978-0.3115
				c0.0601-0.042,0.2402-0.0361,0.3179-0.0537H32.2544z"/>
			<path fill="#DFE4E8" d="M35.9517,13.8823c-0.6655-0.0664-1.1816-0.4375-1.1934-1.2236c0-0.1738,0.0117-0.3477,0.0117-0.5215
				c0-0.21,0.1143-0.3418,0.3062-0.3604c0.1499-0.0059,0.3179,0.1328,0.3418,0.3125c0.0117,0.1318-0.0063,0.2578,0,0.3896
				c0.0117,0.126,0.0117,0.2578,0.0537,0.3779c0.0659,0.2393,0.2642,0.3711,0.4917,0.3652
				c0.2822-0.0059,0.5156-0.1494,0.5337-0.4014c0.0303-0.3184,0.0181-0.6533-0.042-0.9658
				c-0.0537-0.2813-0.2158-0.3359-0.5098-0.3535c-0.3896-0.0244-0.7793-0.0723-1.019-0.4561
				c-0.2578-0.4199-0.2041-0.8457,0.0059-1.2354c0.0957-0.1797,0.3296-0.3232,0.5337-0.4014
				c0.438-0.1738,0.8936-0.0957,1.3193,0.084c0.2813,0.1143,0.4551,0.4736,0.4141,0.7734c-0.0303,0.2041-0.168,0.3301-0.354,0.3301
				c-0.1982-0.0059-0.2822-0.126-0.2939-0.3125c0-0.0293-0.0059-0.0596-0.0181-0.084c-0.084-0.2158-0.5815-0.293-0.9053-0.1377
				c-0.1802,0.0898-0.2642,0.4082-0.1499,0.5996c0.0957,0.1563,0.2456,0.1924,0.4194,0.168
				c0.5098-0.0713,1.1748,0.4023,1.2588,0.9121c0.043,0.252,0.0488,0.5098,0.0723,0.7676c0,0.0537,0,0.1016,0.0059,0.1553
				C37.3008,13.2944,36.5991,13.9419,35.9517,13.8823z"/>
			<path fill="#DFE4E8" d="M38.5996,9.9722c-0.2402-0.0117-0.4385-0.0234-0.6309-0.0303c-0.2393,0-0.3945-0.126-0.4014-0.3291
				c0-0.1865,0.1436-0.3242,0.3838-0.3242c0.3125,0,0.6299,0.0303,0.9473,0.0361c0.2227,0,0.4502-0.0244,0.6719-0.0303
				c0.1387-0.0059,0.2695-0.0059,0.4082,0.0059c0.1914,0.0186,0.2871,0.1143,0.2871,0.2764c0.0059,0.21-0.1191,0.3652-0.3115,0.3721
				c-0.2217,0.0059-0.4502,0-0.708,0c0,0.4434-0.0059,0.8389,0,1.2412v1.9902c0,0.0781-0.0059,0.1621,0,0.2461
				c0.0059,0.2344-0.0898,0.3838-0.2695,0.3955c-0.1914,0.0244-0.3594-0.126-0.3711-0.3594
				c-0.0244-0.2822-0.0244-0.5635-0.0244-0.8457c0-0.4434,0.0117-0.8877,0.0117-1.3311
				C38.5996,10.8599,38.5996,10.4341,38.5996,9.9722z"/>
			<path fill="#DFE4E8" d="M41.2646,13.5103c0.1494,0.0186,0.2705,0.1025,0.2588,0.2764c-0.0068,0.1797-0.1387,0.2871-0.3125,0.293
				c-0.1621,0.0068-0.2402-0.1074-0.2461-0.2695C40.9531,13.6362,41.0791,13.5044,41.2646,13.5103z"/>
		</g>
	</g>
	<g>
		<rect x="19.1113" y="17.7051" fill="none" width="33.7773" height="21.8301"/>
		<path fill="#DFE4E8" d="M24.0215,20.0103h0.4434v-2.0464h-0.4434v-0.2588h0.9727l0.8516,1.9683
			c0.0264,0.0591,0.0488,0.1143,0.0645,0.1646c0.0156,0.0508,0.0303,0.1021,0.043,0.1538h0.0361
			c-0.002-0.0322-0.0039-0.082-0.0049-0.1499c-0.002-0.0679-0.002-0.1362-0.002-0.2056v-1.6724h-0.4443v-0.2588h1.1846v0.2588
			h-0.4443v2.3052h-0.5029l-0.8516-1.9609c-0.0322-0.0718-0.0586-0.1406-0.0811-0.207c-0.0225-0.0669-0.041-0.125-0.0557-0.1743
			H24.75c0.0029,0.0322,0.0049,0.0898,0.0078,0.1724c0.002,0.0825,0.0039,0.1694,0.0039,0.2607v1.6504h0.4434v0.2588h-1.1836
			V20.0103z"/>
		<path fill="#DFE4E8" d="M26.833,20.0103h0.4434v-2.0464H26.833v-0.2588h2.1826v0.999h-0.2588v-0.7402h-1.1836v0.877h0.54v-0.4067
			h0.2588v1.0728h-0.2588v-0.4072h-0.54v0.9106h1.2207V19.27h0.2588v0.999H26.833V20.0103z"/>
		<path fill="#DFE4E8" d="M29.5342,17.9639h-0.3477v-0.2588h1.0947v0.2588h-0.3994l0.374,1.7612
			c0.0117,0.0615,0.0234,0.127,0.0332,0.1963c0.0098,0.0688,0.0166,0.127,0.0225,0.1738h0.0361
			c0.0049-0.0469,0.0117-0.105,0.0186-0.1738c0.0078-0.0693,0.0176-0.1348,0.0303-0.1963l0.377-2.02h0.3184l0.377,2.02
			c0.0127,0.0645,0.0234,0.1304,0.0342,0.1978c0.0098,0.0679,0.0166,0.1255,0.0215,0.1724h0.0371
			c0.0049-0.0469,0.0117-0.106,0.0186-0.1777c0.0078-0.0713,0.0176-0.1357,0.0293-0.1924l0.374-1.7612h-0.4365v-0.2588h1.0947
			v0.2588h-0.3105l-0.5732,2.3052h-0.4365l-0.3145-1.543c-0.0127-0.0615-0.0234-0.127-0.0332-0.1958
			c-0.0098-0.0693-0.0176-0.1274-0.0225-0.1743h-0.0371c-0.0049,0.0469-0.0107,0.105-0.0186,0.1743
			c-0.0068,0.0688-0.0176,0.1343-0.0293,0.1958l-0.3223,1.543h-0.4365L29.5342,17.9639z"/>
		<path fill="#DFE4E8" d="M34.6025,20.3613c-0.1475,0-0.2734-0.021-0.377-0.0625c-0.1035-0.042-0.1875-0.1011-0.252-0.1777
			c-0.0635-0.0767-0.1104-0.167-0.1406-0.272c-0.0293-0.105-0.0439-0.2188-0.0439-0.3423V19.27h0.2959v0.2368
			c0,0.0791,0.0059,0.1548,0.0186,0.2275s0.0371,0.1362,0.0742,0.1904s0.0889,0.0977,0.1572,0.1294
			c0.0674,0.0322,0.1572,0.0483,0.2676,0.0483c0.1064,0,0.1934-0.0161,0.2617-0.0483c0.0674-0.0317,0.1201-0.0752,0.1592-0.1294
			c0.0381-0.0542,0.0635-0.1177,0.0771-0.1904s0.0205-0.1484,0.0205-0.2275v-1.543h-0.4443v-0.2588h1.1846v0.2588H35.417v1.543
			c0,0.1182-0.0146,0.23-0.0439,0.335c-0.0303,0.105-0.0771,0.1953-0.1406,0.272c-0.0645,0.0762-0.1484,0.1367-0.252,0.1812
			S34.751,20.3613,34.6025,20.3613z"/>
		<path fill="#DFE4E8" d="M35.9541,20.0103h0.4434v-2.0464h-0.4434v-0.2588h2.1826v0.999h-0.2588v-0.7402h-1.1836v0.877h0.54
			v-0.4067h0.2588v1.0728h-0.2588v-0.4072h-0.54v0.9106h1.2207V19.27h0.2588v0.999h-2.2197V20.0103z"/>
		<path fill="#DFE4E8" d="M38.3594,20.0103h0.4434v-2.0464h-0.4434v-0.2588h1.2949c0.1377,0,0.2598,0.0171,0.3643,0.0518
			s0.1934,0.082,0.2646,0.1426c0.0713,0.0601,0.126,0.1318,0.1631,0.2144s0.0547,0.1719,0.0547,0.2681
			c0,0.1631-0.0479,0.2939-0.1436,0.3926c-0.0967,0.0986-0.2197,0.1577-0.3701,0.1772v0.0371
			c0.1572,0.0273,0.2686,0.082,0.3311,0.1646c0.0625,0.083,0.0947,0.1797,0.0947,0.2905v0.3628
			c0,0.0615,0.0078,0.1108,0.0254,0.1479s0.0518,0.0557,0.1035,0.0557h0.2959v0.2588H40.498c-0.0889,0-0.1602-0.0117-0.2129-0.0352
			s-0.0938-0.0562-0.1221-0.0981s-0.0469-0.0903-0.0537-0.146c-0.0078-0.0557-0.0107-0.1167-0.0107-0.1831v-0.3628
			c0-0.0938-0.0293-0.1743-0.0859-0.2422s-0.1514-0.1021-0.2842-0.1021h-0.6289v0.9106h0.4434v0.2588h-1.1836V20.0103z
			 M39.6025,18.8408c0.1924,0,0.3379-0.0396,0.4365-0.1182c0.0986-0.0791,0.1475-0.1924,0.1475-0.3408
			c0-0.1406-0.042-0.2451-0.127-0.3145c-0.085-0.0688-0.2207-0.1035-0.4053-0.1035h-0.5547v0.877H39.6025z"/>
		<path fill="#DFE4E8" d="M41.9668,20.3613c-0.1289,0-0.2344-0.0117-0.3184-0.0352s-0.1504-0.0518-0.2002-0.085
			c-0.0488-0.0332-0.0859-0.0698-0.1113-0.1089c-0.0244-0.0396-0.041-0.0767-0.0518-0.1113H41.249v0.248h-0.2598v-1.0249h0.2959
			v0.2925c0,0.0786,0.0137,0.1523,0.041,0.2202s0.0684,0.1274,0.124,0.1792s0.125,0.0923,0.209,0.1221s0.1816,0.0444,0.292,0.0444
			c0.1924,0,0.3428-0.0469,0.4521-0.1406c0.1084-0.0938,0.1621-0.2158,0.1621-0.3662c0-0.1406-0.0527-0.25-0.1592-0.3276
			c-0.1055-0.0776-0.252-0.125-0.4395-0.1421c-0.1406-0.0127-0.2676-0.0376-0.3799-0.0762
			c-0.1123-0.0381-0.208-0.0879-0.2881-0.1499c-0.0801-0.0615-0.1416-0.1343-0.1836-0.2183
			c-0.042-0.0835-0.0625-0.1777-0.0625-0.2813c0-0.0938,0.0166-0.1851,0.0498-0.2734c0.0332-0.0889,0.084-0.1675,0.1533-0.2354
			c0.0693-0.0674,0.1563-0.1221,0.2607-0.1626c0.1055-0.0405,0.2305-0.061,0.376-0.061c0.0889,0,0.166,0.0093,0.2314,0.0278
			s0.1201,0.042,0.1641,0.0703c0.0449,0.0283,0.0801,0.0591,0.1055,0.0923c0.0264,0.0332,0.0449,0.0635,0.0576,0.0908h0.0371
			v-0.2441h0.2588v0.9619h-0.2959v-0.1851c0-0.0767-0.0107-0.1484-0.0313-0.2163c-0.0215-0.0679-0.0547-0.1265-0.1006-0.1758
			c-0.0449-0.0493-0.1035-0.0889-0.1738-0.1187c-0.0703-0.0293-0.1543-0.0444-0.2529-0.0444c-0.0938,0-0.1748,0.0132-0.2422,0.0391
			c-0.0684,0.0259-0.124,0.0596-0.1689,0.1016c-0.0439,0.042-0.0771,0.0903-0.0977,0.1445
			c-0.0215,0.0542-0.0313,0.1108-0.0313,0.1699c0,0.1333,0.0479,0.2388,0.1455,0.3164s0.2412,0.123,0.4316,0.1353
			c0.1475,0.0098,0.2803,0.0313,0.3975,0.0645c0.1172,0.0337,0.2168,0.0796,0.2979,0.1392
			c0.0811,0.0591,0.1436,0.1328,0.1865,0.2217s0.0654,0.1948,0.0654,0.3184c0,0.1108-0.0215,0.2144-0.0635,0.311
			c-0.042,0.0962-0.1025,0.1792-0.1807,0.2495c-0.0791,0.0703-0.1748,0.125-0.2871,0.1646S42.1074,20.3613,41.9668,20.3613z"/>
		<path fill="#DFE4E8" d="M43.04,20.0103h0.4434v-2.0464H43.04v-0.2588h2.1826v0.999h-0.2588v-0.7402h-1.1836v0.877h0.54v-0.4067
			h0.2588v1.0728h-0.2588v-0.4072h-0.54v0.9106h1.2207V19.27h0.2588v0.999H43.04V20.0103z"/>
		<path fill="#DFE4E8" d="M46.1221,20.0103h0.4443v-0.7476l-0.8184-1.2988h-0.3584v-0.2588h1.0801v0.2588h-0.3809l0.6221,1.0547
			l0.625-1.0547h-0.3809v-0.2588h1.0801v0.2588h-0.3594l-0.8135,1.2988v0.7476h0.4443v0.2588h-1.1846V20.0103z"/>
		<path fill="#DFE4E8" d="M23.3369,25.0103h0.4434v-2.0464h-0.4434v-0.2588h1.1836v0.2588h-0.4434v2.0464h0.4434v0.2588h-1.1836
			V25.0103z"/>
		<path fill="#DFE4E8" d="M24.6689,25.0103h0.4434v-2.0464h-0.4434v-0.2588h0.9727l0.8516,1.9683
			c0.0264,0.0591,0.0488,0.1143,0.0645,0.1646c0.0156,0.0508,0.0303,0.1021,0.043,0.1538h0.0361
			c-0.002-0.0322-0.0039-0.082-0.0049-0.1499c-0.002-0.0679-0.002-0.1362-0.002-0.2056v-1.6724h-0.4443v-0.2588h1.1846v0.2588
			h-0.4443v2.3052h-0.5029l-0.8516-1.9609c-0.0322-0.0718-0.0586-0.1406-0.0811-0.207c-0.0225-0.0669-0.041-0.125-0.0557-0.1743
			h-0.0371c0.0029,0.0322,0.0049,0.0898,0.0078,0.1724c0.002,0.0825,0.0039,0.1694,0.0039,0.2607v1.6504h0.4434v0.2588h-1.1836
			V25.0103z"/>
		<path fill="#DFE4E8" d="M28.5352,25.3613c-0.1289,0-0.2344-0.0117-0.3184-0.0352s-0.1504-0.0518-0.2002-0.085
			c-0.0488-0.0332-0.0859-0.0698-0.1113-0.1089c-0.0244-0.0396-0.041-0.0767-0.0518-0.1113h-0.0361v0.248h-0.2598v-1.0249h0.2959
			v0.2925c0,0.0786,0.0137,0.1523,0.041,0.2202s0.0684,0.1274,0.124,0.1792s0.125,0.0923,0.209,0.1221s0.1816,0.0444,0.292,0.0444
			c0.1924,0,0.3428-0.0469,0.4521-0.1406c0.1084-0.0938,0.1621-0.2158,0.1621-0.3662c0-0.1406-0.0527-0.25-0.1592-0.3276
			c-0.1055-0.0776-0.252-0.125-0.4395-0.1421c-0.1406-0.0127-0.2676-0.0376-0.3799-0.0762
			c-0.1123-0.0381-0.208-0.0879-0.2881-0.1499c-0.0801-0.0615-0.1416-0.1343-0.1836-0.2183
			c-0.042-0.0835-0.0625-0.1777-0.0625-0.2813c0-0.0938,0.0166-0.1851,0.0498-0.2734c0.0332-0.0889,0.084-0.1675,0.1533-0.2354
			c0.0693-0.0674,0.1563-0.1221,0.2607-0.1626c0.1055-0.0405,0.2305-0.061,0.376-0.061c0.0889,0,0.166,0.0093,0.2314,0.0278
			s0.1201,0.042,0.1641,0.0703c0.0449,0.0283,0.0801,0.0591,0.1055,0.0923c0.0264,0.0332,0.0449,0.0635,0.0576,0.0908h0.0371
			v-0.2441h0.2588v0.9619h-0.2959v-0.1851c0-0.0767-0.0107-0.1484-0.0313-0.2163c-0.0215-0.0679-0.0547-0.1265-0.1006-0.1758
			c-0.0449-0.0493-0.1035-0.0889-0.1738-0.1187c-0.0703-0.0293-0.1543-0.0444-0.2529-0.0444c-0.0938,0-0.1748,0.0132-0.2422,0.0391
			c-0.0684,0.0259-0.124,0.0596-0.1689,0.1016c-0.0439,0.042-0.0771,0.0903-0.0977,0.1445
			c-0.0215,0.0542-0.0313,0.1108-0.0313,0.1699c0,0.1333,0.0479,0.2388,0.1455,0.3164s0.2412,0.123,0.4316,0.1353
			c0.1475,0.0098,0.2803,0.0313,0.3975,0.0645c0.1172,0.0337,0.2168,0.0796,0.2979,0.1392
			c0.0811,0.0591,0.1436,0.1328,0.1865,0.2217s0.0654,0.1948,0.0654,0.3184c0,0.1108-0.0215,0.2144-0.0635,0.311
			c-0.042,0.0962-0.1025,0.1792-0.1807,0.2495c-0.0791,0.0703-0.1748,0.125-0.2871,0.1646S28.6758,25.3613,28.5352,25.3613z"/>
		<path fill="#DFE4E8" d="M30.0889,25.0103h0.4443v-2.0464h-0.7031v0.7402h-0.2588v-0.999h2.2197v0.999h-0.2588v-0.7402h-0.7031
			v2.0464h0.4443v0.2588h-1.1846V25.0103z"/>
		<path fill="#DFE4E8" d="M31.9023,25.0103h0.4434v-2.0464h-0.4434v-0.2588h1.1836v0.2588h-0.4434v2.0464h0.4434v0.2588h-1.1836
			V25.0103z"/>
		<path fill="#DFE4E8" d="M33.7148,25.0103h0.4443v-2.0464h-0.7031v0.7402h-0.2588v-0.999h2.2197v0.999h-0.2588v-0.7402h-0.7031
			v2.0464h0.4443v0.2588h-1.1846V25.0103z"/>
		<path fill="#DFE4E8" d="M36.8047,25.3613c-0.2959,0-0.5186-0.0737-0.666-0.2217c-0.1484-0.1479-0.2217-0.3467-0.2217-0.5957
			v-1.5801h-0.4443v-0.2588h1.1836v0.2588h-0.4434v1.5801c0,0.0791,0.0098,0.1528,0.0293,0.2217
			c0.0195,0.0693,0.0527,0.1284,0.0996,0.1777s0.1084,0.0884,0.1836,0.1167s0.168,0.0425,0.2793,0.0425
			c0.1055,0,0.1963-0.0142,0.2715-0.0425s0.1377-0.0674,0.1855-0.1167s0.082-0.1084,0.1035-0.1777
			c0.0205-0.0688,0.0313-0.1426,0.0313-0.2217v-1.5801h-0.4443v-0.2588h1.1846v0.2588h-0.4443v1.5801
			c0,0.1182-0.0186,0.228-0.0557,0.3291c-0.0361,0.1011-0.0918,0.1875-0.166,0.2593c-0.0742,0.0713-0.167,0.1274-0.2773,0.168
			C37.082,25.3413,36.9521,25.3613,36.8047,25.3613z"/>
		<path fill="#DFE4E8" d="M38.71,25.0103h0.4443v-2.0464h-0.7031v0.7402h-0.2588v-0.999h2.2197v0.999h-0.2588v-0.7402h-0.7031
			v2.0464h0.4443v0.2588H38.71V25.0103z"/>
		<path fill="#DFE4E8" d="M40.5234,25.0103h0.4434v-2.0464h-0.4434v-0.2588h2.1826v0.999h-0.2588v-0.7402h-1.1836v0.877h0.54
			v-0.4067h0.2588v1.0728h-0.2588v-0.4072h-0.54v0.9106h1.2207V24.27h0.2588v0.999h-2.2197V25.0103z"/>
		<path fill="#DFE4E8" d="M45.2412,25.3613c-0.1895,0-0.3564-0.0352-0.499-0.1055c-0.1436-0.0698-0.2627-0.1665-0.3594-0.2886
			c-0.0957-0.1221-0.168-0.2651-0.2168-0.4292c-0.0479-0.1636-0.0713-0.3384-0.0713-0.5234s0.0234-0.3594,0.0713-0.5234
			c0.0488-0.1641,0.1211-0.3071,0.2168-0.4292c0.0967-0.1221,0.2158-0.2183,0.3594-0.2886c0.1426-0.0703,0.3096-0.1055,0.499-0.1055
			c0.1875,0,0.3525,0.0352,0.4961,0.1055c0.1426,0.0703,0.2627,0.1665,0.3584,0.2886c0.0967,0.1221,0.1689,0.2651,0.2188,0.4292
			c0.0488,0.1641,0.0742,0.3384,0.0742,0.5234s-0.0244,0.3599-0.0723,0.5234c-0.0479,0.1641-0.1201,0.3071-0.2168,0.4292
			c-0.0957,0.1221-0.2158,0.2188-0.3584,0.2886C45.5977,25.3262,45.4316,25.3613,45.2412,25.3613z M45.2412,25.1025
			c0.1406,0,0.2637-0.0283,0.3682-0.085s0.1914-0.1348,0.2607-0.2334s0.1201-0.2139,0.1533-0.3457
			c0.0342-0.1318,0.0508-0.2734,0.0508-0.4238s-0.0166-0.2915-0.0508-0.4233c-0.0332-0.1323-0.084-0.2476-0.1533-0.3462
			s-0.1563-0.1763-0.2607-0.2329s-0.2275-0.0854-0.3682-0.0854s-0.2637,0.0288-0.3682,0.0854s-0.1914,0.1343-0.2607,0.2329
			s-0.1201,0.2139-0.1533,0.3462c-0.0332,0.1318-0.0498,0.2729-0.0498,0.4233s0.0166,0.292,0.0498,0.4238
			s0.084,0.2471,0.1533,0.3457s0.1563,0.1768,0.2607,0.2334S45.1006,25.1025,45.2412,25.1025z"/>
		<path fill="#DFE4E8" d="M46.5176,25.0103h0.4434v-2.0464h-0.4434v-0.2588h2.1826v0.999h-0.2588v-0.7402h-1.1836v0.877h0.54
			v-0.4067h0.2588v1.0728h-0.2588v-0.4072h-0.54v0.9106h0.4434v0.2588h-1.1836V25.0103z"/>
		<path fill="#DFE4E8" d="M23.9287,30.0103h0.4443v-2.0464h-0.7031v0.7402h-0.2588v-0.999h2.2197v0.999h-0.2588v-0.7402h-0.7031
			v2.0464h0.4443v0.2588h-1.1846V30.0103z"/>
		<path fill="#DFE4E8" d="M25.7422,30.0103h0.4434v-2.0464h-0.4434v-0.2588h2.1826v0.999H27.666v-0.7402h-1.1836v0.877h0.54v-0.4067
			h0.2588v1.0728h-0.2588v-0.4072h-0.54v0.9106h1.2207V29.27h0.2588v0.999h-2.2197V30.0103z"/>
		<path fill="#DFE4E8" d="M29.3428,30.3613c-0.1924,0-0.3594-0.0332-0.5-0.0996c-0.1406-0.0669-0.2568-0.1592-0.3496-0.2773
			c-0.0928-0.1187-0.1611-0.2588-0.2051-0.4204c-0.0449-0.1611-0.0664-0.3384-0.0664-0.5308s0.0264-0.3711,0.0791-0.5366
			c0.0527-0.165,0.1279-0.3096,0.2256-0.4326c0.0977-0.1235,0.2139-0.2202,0.3496-0.2905s0.2861-0.1055,0.4512-0.1055
			c0.0918,0,0.1719,0.0093,0.2412,0.0278c0.0684,0.0186,0.1289,0.0425,0.1807,0.0723c0.0518,0.0293,0.0947,0.0635,0.1279,0.1016
			s0.0586,0.0771,0.0762,0.1167h0.0371v-0.2813h0.2588v0.999h-0.2959v-0.2183c0-0.0767-0.0137-0.1489-0.0391-0.2168
			c-0.0264-0.0679-0.0645-0.127-0.1152-0.1772c-0.0498-0.0508-0.1123-0.0908-0.1865-0.1206
			c-0.0742-0.0293-0.1592-0.0444-0.2549-0.0444c-0.124,0-0.2363,0.0259-0.3369,0.0781c-0.1016,0.0518-0.1875,0.125-0.2588,0.2197
			c-0.0723,0.0952-0.127,0.2109-0.167,0.3481c-0.0391,0.1367-0.0586,0.2905-0.0586,0.4604c0,0.1704,0.0186,0.3218,0.0566,0.4551
			s0.0928,0.2451,0.1631,0.335s0.1553,0.1592,0.2549,0.207c0.1006,0.0483,0.2109,0.0723,0.332,0.0723
			c0.0986,0,0.1904-0.0166,0.2773-0.0498c0.0859-0.0332,0.1641-0.082,0.2324-0.1465c0.0693-0.064,0.127-0.1445,0.1738-0.2422
			c0.0469-0.0972,0.0811-0.2114,0.1006-0.3423l0.2627,0.0444c-0.0176,0.1333-0.0537,0.2603-0.1094,0.3813
			c-0.0557,0.1206-0.1279,0.2261-0.2168,0.3159c-0.0889,0.0903-0.1943,0.1626-0.3164,0.2168S29.4902,30.3613,29.3428,30.3613z"/>
		<path fill="#DFE4E8" d="M30.5156,30.0103h0.4434v-2.0464h-0.4434v-0.2588h1.1836v0.2588h-0.4434v0.877h1.2207v-0.877h-0.4443
			v-0.2588h1.1846v0.2588h-0.4443v2.0464h0.4443v0.2588h-1.1846v-0.2588h0.4443v-0.9106h-1.2207v0.9106h0.4434v0.2588h-1.1836
			V30.0103z"/>
		<path fill="#DFE4E8" d="M33.3643,30.0103h0.4434v-2.0464h-0.4434v-0.2588h0.9727l0.8516,1.9683
			c0.0264,0.0591,0.0488,0.1143,0.0645,0.1646c0.0156,0.0508,0.0303,0.1021,0.043,0.1538h0.0361
			c-0.002-0.0322-0.0039-0.082-0.0049-0.1499c-0.002-0.0679-0.002-0.1362-0.002-0.2056v-1.6724h-0.4443v-0.2588h1.1846v0.2588
			h-0.4443v2.3052h-0.5029l-0.8516-1.9609c-0.0322-0.0718-0.0586-0.1406-0.0811-0.207c-0.0225-0.0669-0.041-0.125-0.0557-0.1743
			h-0.0371c0.0029,0.0322,0.0049,0.0898,0.0078,0.1724c0.002,0.0825,0.0039,0.1694,0.0039,0.2607v1.6504h0.4434v0.2588h-1.1836
			V30.0103z"/>
		<path fill="#DFE4E8" d="M37.3037,30.3613c-0.1895,0-0.3564-0.0352-0.499-0.1055c-0.1436-0.0698-0.2627-0.1665-0.3594-0.2886
			c-0.0957-0.1221-0.168-0.2651-0.2168-0.4292c-0.0479-0.1636-0.0713-0.3384-0.0713-0.5234s0.0234-0.3594,0.0713-0.5234
			c0.0488-0.1641,0.1211-0.3071,0.2168-0.4292c0.0967-0.1221,0.2158-0.2183,0.3594-0.2886c0.1426-0.0703,0.3096-0.1055,0.499-0.1055
			c0.1875,0,0.3525,0.0352,0.4961,0.1055c0.1426,0.0703,0.2627,0.1665,0.3584,0.2886c0.0967,0.1221,0.1689,0.2651,0.2188,0.4292
			c0.0488,0.1641,0.0742,0.3384,0.0742,0.5234s-0.0244,0.3599-0.0723,0.5234c-0.0479,0.1641-0.1201,0.3071-0.2168,0.4292
			c-0.0957,0.1221-0.2158,0.2188-0.3584,0.2886C37.6602,30.3262,37.4941,30.3613,37.3037,30.3613z M37.3037,30.1025
			c0.1406,0,0.2637-0.0283,0.3682-0.085s0.1914-0.1348,0.2607-0.2334s0.1201-0.2139,0.1533-0.3457
			c0.0342-0.1318,0.0508-0.2734,0.0508-0.4238s-0.0166-0.2915-0.0508-0.4233c-0.0332-0.1323-0.084-0.2476-0.1533-0.3462
			s-0.1563-0.1763-0.2607-0.2329s-0.2275-0.0854-0.3682-0.0854s-0.2637,0.0288-0.3682,0.0854s-0.1914,0.1343-0.2607,0.2329
			s-0.1201,0.2139-0.1533,0.3462c-0.0332,0.1318-0.0498,0.2729-0.0498,0.4233s0.0166,0.292,0.0498,0.4238
			s0.084,0.2471,0.1533,0.3457s0.1563,0.1768,0.2607,0.2334S37.1631,30.1025,37.3037,30.1025z"/>
		<path fill="#DFE4E8" d="M38.5811,30.0103h0.4434v-2.0464h-0.4434v-0.2588h1.1836v0.2588h-0.4434v2.0464h1.2207V29.27h0.2588v0.999
			h-2.2197V30.0103z"/>
		<path fill="#DFE4E8" d="M42.1514,30.3613c-0.1895,0-0.3564-0.0352-0.499-0.1055c-0.1436-0.0698-0.2627-0.1665-0.3594-0.2886
			c-0.0957-0.1221-0.168-0.2651-0.2168-0.4292c-0.0479-0.1636-0.0713-0.3384-0.0713-0.5234s0.0234-0.3594,0.0713-0.5234
			c0.0488-0.1641,0.1211-0.3071,0.2168-0.4292c0.0967-0.1221,0.2158-0.2183,0.3594-0.2886c0.1426-0.0703,0.3096-0.1055,0.499-0.1055
			c0.1875,0,0.3525,0.0352,0.4961,0.1055c0.1426,0.0703,0.2627,0.1665,0.3584,0.2886c0.0967,0.1221,0.1689,0.2651,0.2188,0.4292
			c0.0488,0.1641,0.0742,0.3384,0.0742,0.5234s-0.0244,0.3599-0.0723,0.5234c-0.0479,0.1641-0.1201,0.3071-0.2168,0.4292
			c-0.0957,0.1221-0.2158,0.2188-0.3584,0.2886C42.5078,30.3262,42.3418,30.3613,42.1514,30.3613z M42.1514,30.1025
			c0.1406,0,0.2637-0.0283,0.3682-0.085s0.1914-0.1348,0.2607-0.2334s0.1201-0.2139,0.1533-0.3457
			c0.0342-0.1318,0.0508-0.2734,0.0508-0.4238s-0.0166-0.2915-0.0508-0.4233c-0.0332-0.1323-0.084-0.2476-0.1533-0.3462
			s-0.1563-0.1763-0.2607-0.2329s-0.2275-0.0854-0.3682-0.0854s-0.2637,0.0288-0.3682,0.0854s-0.1914,0.1343-0.2607,0.2329
			s-0.1201,0.2139-0.1533,0.3462c-0.0332,0.1318-0.0498,0.2729-0.0498,0.4233s0.0166,0.292,0.0498,0.4238
			s0.084,0.2471,0.1533,0.3457s0.1563,0.1768,0.2607,0.2334S42.0107,30.1025,42.1514,30.1025z"/>
		<path fill="#DFE4E8" d="M44.6973,30.3613c-0.1924,0-0.3594-0.0332-0.5-0.0996c-0.1406-0.0669-0.2568-0.1592-0.3496-0.2773
			c-0.0928-0.1187-0.1611-0.2588-0.2051-0.4204c-0.0449-0.1611-0.0664-0.3384-0.0664-0.5308s0.0264-0.3711,0.0791-0.5366
			c0.0527-0.165,0.1279-0.3096,0.2256-0.4326c0.0977-0.1235,0.2139-0.2202,0.3496-0.2905s0.2861-0.1055,0.4512-0.1055
			c0.0918,0,0.1719,0.0093,0.2412,0.0278c0.0684,0.0186,0.1289,0.0425,0.1807,0.0723c0.0518,0.0293,0.0947,0.0635,0.1279,0.1016
			s0.0586,0.0771,0.0762,0.1167h0.0371v-0.2813h0.2588v0.999h-0.2959v-0.2183c0-0.0767-0.0137-0.1489-0.0391-0.2168
			c-0.0264-0.0679-0.0645-0.127-0.1152-0.1772c-0.0498-0.0508-0.1123-0.0908-0.1865-0.1206
			c-0.0742-0.0293-0.1592-0.0444-0.2549-0.0444c-0.124,0-0.2363,0.0259-0.3369,0.0781c-0.1016,0.0518-0.1875,0.125-0.2588,0.2197
			c-0.0723,0.0952-0.127,0.2109-0.167,0.3481c-0.0391,0.1367-0.0586,0.2905-0.0586,0.4604c0,0.1704,0.0186,0.3218,0.0566,0.4551
			s0.0928,0.2451,0.1631,0.335s0.1553,0.1592,0.2549,0.207c0.1006,0.0483,0.2109,0.0723,0.332,0.0723
			c0.1152,0,0.2197-0.019,0.3125-0.0571c0.0918-0.0386,0.1709-0.0913,0.2363-0.1592s0.1152-0.147,0.1504-0.2368
			c0.0342-0.0903,0.0518-0.187,0.0518-0.2905v-0.1367h-0.5557v-0.2593H46.04v0.2593h-0.2959v1.0469h-0.2588v-0.311h-0.0371
			c-0.0176,0.0444-0.0469,0.0903-0.0869,0.1372c-0.041,0.0469-0.0928,0.0898-0.1553,0.1294
			c-0.0635,0.0396-0.1377,0.0723-0.2227,0.0981S44.8027,30.3613,44.6973,30.3613z"/>
		<path fill="#DFE4E8" d="M46.6943,30.0103h0.4443v-0.7476l-0.8184-1.2988h-0.3584v-0.2588h1.0801v0.2588h-0.3809l0.6221,1.0547
			l0.625-1.0547h-0.3809v-0.2588h1.0801v0.2588H48.248l-0.8135,1.2988v0.7476h0.4443v0.2588h-1.1846V30.0103z"/>
	</g>
	<g>
		<g>
			<path fill="#DFE4E8" d="M29.8916,35.1421v-1.2456h13.2451v4.5215h-0.8945v0.0273v0.1621l-0.7578,0.7314h-0.1621h-0.1621
				l0.9473-0.9209h-0.7051l-0.9473,0.9209H40.293h-0.0273v-0.1357l0.9219-0.9209v-0.7031l-0.9219,0.9199v-0.1621v-0.1621
				l0.9219-0.9209v-0.7041l-0.9219,0.9209v-0.1631v-0.1621l0.9219-0.9204V35.873h-0.3262l-0.9473,0.9209H39.75h-0.1621
				l0.9219-0.9209H39.832l-0.9473,0.9209h-0.1641h-0.1621l0.9219-0.9209h-0.7051l-0.9199,0.9209h-0.1641h-0.1621l0.9219-0.9209
				h-0.7051l-0.9204,0.9209h-0.1626h-0.1626l0.9214-0.9209h-0.7046l-0.9209,0.9209h-0.1626h-0.1895l0.9478-0.9209H35.688
				l-0.9209,0.9209h-0.1895H34.415l0.9478-0.9209h-0.7041l-0.9482,0.9209h-0.1621h-0.1626l0.9478-0.9209h-0.7041l-0.9482,0.9209
				H32.519h-0.1626l0.9478-0.9209h-0.7041l-0.7583,0.7266v3.6328h11.2949v12.5889h-0.8945v0.082v0.1621l-0.7031,0.6768H41.377
				h-0.1641l0.9492-0.9209H41.457l-0.9473,0.9209h-0.1621h-0.1641l0.9219-0.9209h-0.6777l-0.9473,0.9209h-0.1621h-0.1641
				l0.9219-0.9209h-0.7051l-0.9199,0.9209h-0.1621H38.125l0.9219-0.9209h-0.7051l-0.9199,0.9209h-0.1621h-0.1641l0.9219-0.9209
				h-0.7051l-0.9204,0.9209h-0.1626H36.04l0.9478-0.9209h-0.7041l-0.9209,0.9209h-0.1895h-0.1626l0.9482-0.9209h-0.7046
				l-0.9478,0.9209H34.144h-0.1626l0.9482-0.9209h-0.7046l-0.9478,0.9209h-0.1626h-0.1626l0.9482-0.9209h-0.7046l-0.9478,0.9209
				h-0.1626h-0.1626l0.9209-0.9209h-0.6772l-0.9478,0.9209h-0.1626h-0.1626l0.9209-0.9209h-0.7041l-0.9209,0.9209h-0.1626h-0.1626
				l0.9209-0.9209h-0.7041l-0.9209,0.9209h-0.1626h-0.0269v-0.1357l0.9209-0.9199v-0.7041l-0.9209,0.9209v-0.1631v-0.1621
				l0.9209-0.9209v-0.7041l-0.9209,0.9209v-0.1621v-0.1631l0.9209-0.9199v-0.7041l-0.9209,0.9209v-0.1631v-0.1895l0.9209-0.8936
				v-0.7041l-0.9209,0.9209v-0.1621v-0.1895l0.9209-0.9209v-0.6768l-0.9209,0.9199v-0.1895v-0.1621l0.9209-0.9209v-1.3262h1.9502
				v4.6572h8.4238v-0.1084v-0.1895l0.9219-0.8936v-0.7041l-0.9219,0.9199v-0.1895v-0.1621l0.9219-0.9209v-0.6768l-0.9219,0.9209
				v-0.1895v-0.1621l0.9219-0.9209v-0.6768l-0.9219,0.8936V47.623v-0.1621l0.9219-0.9209v-0.7031l-0.9219,0.9199v-0.1621v-0.1631
				l0.9219-0.9199v-0.7041l-0.9219,0.9209v-0.1631v-0.1621l0.9219-0.9209v-0.7041l-0.9219,0.9209v-0.1621V44.374l0.9219-0.9355
				v-0.7158l-0.9219,0.9482v-0.1631v-0.1621l0.9219-0.9209V42.208h-0.4883L39.75,43.1289h-0.1621h-0.1621l0.9219-0.9209h-0.6777
				l-0.9492,0.9209h-0.1621h-0.1621l0.9219-0.9209h-0.7051l-0.9219,0.9209h-0.1621h-0.1621l0.9219-0.9209H37.584l-0.9209,0.9209
				h-0.1626H36.311l0.9487-0.9209h-0.7051l-0.9209,0.9209h-0.1895h-0.1626l0.9478-0.9209h-0.7041l-0.9209,0.9209H34.415h-0.1626
				l0.9478-0.9209h-0.7041l-0.9478,0.9209h-0.1626h-0.1626l0.9478-0.9209h-0.7041l-0.9478,0.9209h-0.1626h-0.1626l0.9209-0.9209
				h-0.6772l-0.9478,0.9209h-0.1626h-0.1626l0.9209-0.9209h-0.6772l-0.9478,0.9209h-0.1626h-0.1626l0.9209-0.9209h-0.7041
				l-0.9209,0.9209h-0.1626H29.106l0.9209-0.9209h-0.1353v-0.5488l-0.9209,0.9014v-0.1621v-0.1631l0.9209-0.917v-0.7021
				l-0.9209,0.9307v-0.1621v-0.1885l0.9209-0.8877v-0.6992l-0.9209,0.8975v-0.1875v-0.1602l0.9209-0.9102v-0.6689l-0.9209,0.8936
				v-0.1621v-0.1621l0.9209-0.9209v-0.7041l-0.9209,0.9209v-0.1631v-0.1621l0.9209-0.9199v-0.7041l-0.9209,0.9199v-0.1621v-0.1621
				l0.9209-0.9209v-0.7041l-0.9209,0.9209v-0.1626v-0.1626L29.8916,35.1421z M29.3228,34.8442h0.1626l-0.5146,0.5146v-0.1626
				v-0.1626l0.1895-0.1895H29.3228z M29.4312,47.1094h0.1621l-0.6226,0.6221v-0.1621v-0.1621l0.2979-0.2979H29.4312z
				 M31.8418,36.2793l0.4063-0.4063h-0.4063V36.2793z M41.1875,49.9785l-0.8672,0.8672h0.7031l0.1641-0.1631V49.9785z
				 M42.2422,39.3115v0.0273h-0.0527L42.2422,39.3115z"/>
		</g>
	</g>
	<g>
	</g>
	<g>
	</g>
	<g>
	</g>
	<g>
	</g>
	<g>
	</g>
	<g>
	</g>
</g>
</svg>
