<?xml version="1.0" encoding="utf-8"?>
<!-- Generator: Adobe Illustrator 16.0.0, SVG Export Plug-In . SVG Version: 6.00 Build 0)  -->
<!DOCTYPE svg PUBLIC "-//W3C//DTD SVG 1.1//EN" "http://www.w3.org/Graphics/SVG/1.1/DTD/svg11.dtd">
<svg version="1.1" xmlns="http://www.w3.org/2000/svg" xmlns:xlink="http://www.w3.org/1999/xlink" x="0px" y="0px" width="216px"
	 height="92.5845px" viewBox="0 0 216 92.5845" enable-background="new 0 0 216 92.5845" xml:space="preserve">
<g id="Background" display="none">
	<rect display="inline" fill="#FFFFFF" width="216" height="92.5845"/>
</g>
<g id="Text">
	<g>
		
			<line fill="none" stroke="#BC2C43" stroke-width="1.8341" stroke-miterlimit="10" x1="19.0547" y1="13.4893" x2="93.7832" y2="13.4893"/>
		
			<line fill="none" stroke="#BC2C43" stroke-width="1.8341" stroke-miterlimit="10" x1="150.9111" y1="13.4893" x2="197.4697" y2="13.4893"/>
		
			<line fill="none" stroke="#BC2C43" stroke-width="1.8341" stroke-miterlimit="10" x1="197.4697" y1="66.3359" x2="124.2666" y2="66.3359"/>
		
			<line fill="none" stroke="#BC2C43" stroke-width="1.8341" stroke-miterlimit="10" x1="67.1406" y1="66.3359" x2="19.0547" y2="66.3359"/>
		<g>
			<path fill="#171952" d="M21.165,23.5547v-2.208h23.4824v8.0161h-1.585v0.0479v0.2881l-1.3447,1.2959h-0.2881h-0.2881
				l1.6807-1.6318h-1.248l-1.6807,1.6318h-0.2881h-0.0488v-0.2397l1.6328-1.6323V27.875l-1.6328,1.6318v-0.2881v-0.2881
				l1.6328-1.6318v-1.248l-1.6328,1.6318v-0.2881v-0.2876l1.6328-1.6323v-0.624h-0.5762l-1.6807,1.6323h-0.2881h-0.2881
				l1.6328-1.6323h-1.2002l-1.6807,1.6323h-0.2881h-0.2891l1.6328-1.6323h-1.248l-1.6328,1.6323h-0.2881H34.707l1.6328-1.6323
				h-1.249l-1.6328,1.6323h-0.2881h-0.2881l1.6328-1.6323h-1.248l-1.6328,1.6323h-0.2881h-0.3369l1.6816-1.6323h-1.249
				l-1.6328,1.6323h-0.3359h-0.2881l1.6807-1.6323h-1.249l-1.6807,1.6323h-0.2881h-0.2881l1.6807-1.6323h-1.248l-1.6807,1.6323
				h-0.2881h-0.2881l1.6807-1.6323h-1.249l-1.3447,1.2881v6.4399h20.0254v22.3203h-1.585v0.144v0.2876l-1.248,1.2002h-0.2881
				h-0.2881l1.6807-1.6318h-1.249l-1.6807,1.6318h-0.2881h-0.2881l1.6328-1.6318h-1.2012l-1.6807,1.6318H37.876h-0.2881
				l1.6328-1.6318h-1.248l-1.6328,1.6318h-0.2881h-0.2881l1.6328-1.6318h-1.249l-1.6328,1.6318h-0.2881h-0.2881l1.6328-1.6318
				h-1.249l-1.6318,1.6318h-0.2891h-0.3359l1.6807-1.6318h-1.248l-1.6328,1.6318h-0.3359h-0.2881l1.6807-1.6318h-1.249
				l-1.6807,1.6318h-0.2881H28.416l1.6807-1.6318h-1.248l-1.6807,1.6318h-0.2891h-0.2881l1.6816-1.6318h-1.249l-1.6807,1.6318
				h-0.2881h-0.2881l1.6328-1.6318h-1.2012l-1.6807,1.6318h-0.2881h-0.2881l1.6328-1.6318h-1.248l-1.6328,1.6318h-0.2881h-0.2881
				l1.6318-1.6318h-1.248l-1.6328,1.6318h-0.2881h-0.0479v-0.2402l1.6328-1.6318v-1.248l-1.6328,1.6323v-0.2881v-0.2881
				l1.6328-1.6318v-1.248l-1.6328,1.6318v-0.2881v-0.2881l1.6328-1.6318v-1.248l-1.6328,1.6318v-0.2876V50.771l1.6328-1.5845V47.939
				l-1.6328,1.6318v-0.2881v-0.3359l1.6328-1.6318v-1.2002l-1.6328,1.6318v-0.3359v-0.2881l1.6328-1.6318v-2.3521h3.457v8.2559
				h14.9346v-0.1919v-0.3359l1.6328-1.584v-1.248l-1.6328,1.6323v-0.3364V49.043l1.6328-1.6323v-1.1997l-1.6328,1.6318v-0.3359
				v-0.2881l1.6328-1.6318v-1.2002l-1.6328,1.584v-0.2881v-0.2881l1.6328-1.6318v-1.248l-1.6328,1.6323v-0.2881v-0.2881
				l1.6328-1.6318v-1.248l-1.6328,1.6318v-0.2881v-0.2881l1.6328-1.6318v-1.248l-1.6328,1.6318v-0.2876v-0.2881l1.6328-1.6592
				v-1.269l-1.6328,1.6802v-0.2881v-0.2881l1.6328-1.6318v-0.3843h-0.8643l-1.6807,1.6323h-0.2881h-0.2881l1.6328-1.6323H38.501
				l-1.6807,1.6323h-0.2891h-0.2881l1.6328-1.6323h-1.248l-1.6328,1.6323H34.707h-0.2881l1.6328-1.6323h-1.249l-1.6328,1.6323
				h-0.2881h-0.3359l1.6807-1.6323h-1.248l-1.6328,1.6323h-0.3369h-0.2881l1.6807-1.6323h-1.248l-1.6328,1.6323h-0.3359h-0.2881
				l1.6807-1.6323h-1.249l-1.6807,1.6323h-0.2881h-0.2881l1.6807-1.6323h-1.248l-1.6807,1.6323h-0.2881h-0.2881l1.6318-1.6323
				h-1.2002l-1.6807,1.6323H23.71h-0.2881l1.6328-1.6323h-1.2012l-1.6807,1.6323h-0.2881h-0.2881l1.6328-1.6323h-1.248
				l-1.6328,1.6323h-0.2881h-0.2881l1.6328-1.6323H21.165v-0.9731l-1.6328,1.5972v-0.2876v-0.2881l1.6328-1.627v-1.2441
				l-1.6328,1.6509v-0.2881v-0.334l1.6328-1.5742v-1.2397l-1.6328,1.5908v-0.332v-0.2842l1.6328-1.6128v-1.1855l-1.6328,1.584
				v-0.2881v-0.2881l1.6328-1.6318v-1.248l-1.6328,1.6318v-0.2881V28.835l1.6328-1.6323v-1.248l-1.6328,1.6323v-0.2881v-0.2881
				l1.6328-1.6318v-1.248l-1.6328,1.6318v-0.2881v-0.2881L21.165,23.5547z M20.1563,23.0269h0.2881l-0.9121,0.9121v-0.2881v-0.2881
				l0.3359-0.3359H20.1563z M20.3486,44.771h0.2881l-1.1045,1.104v-0.2881v-0.2881l0.5283-0.5278H20.3486z M24.6221,25.5708
				l0.7207-0.7202h-0.7207V25.5708z M41.1895,49.8589l-1.5361,1.5356h1.248l0.2881-0.2876V49.8589z M43.0625,30.9468v0.0479h-0.0957
				L43.0625,30.9468z"/>
			<path fill="#171952" d="M56.6533,56.0508l-0.4805,0.48h-0.2881h-0.2881l1.0566-1.0562l0.5762-0.5757h-1.2617l-1.6504,1.6318
				h-0.291h-0.291l1.6689-1.6318h-1.2549l-1.6426,1.6318h-0.2891h-0.3379l1.665-1.6318h-1.2363l-1.6182,1.6318h-0.333h-0.2852
				l1.667-1.6318H51.5h-1l-0.6191,0.5757l-1.0566,1.0562h-0.2881H48.248l1.6328-1.6318h0.0479h-1.2471l-1.6807,1.6318h-0.2881
				h-0.0967v-0.1919l1.5371-1.5361l0.0957-0.0962V53.459l-1.3447,1.3438l-0.2881,0.2881v-0.2881v-0.2881l1.4404-1.4399h0.1924
				v-1.6802h1.6328V51.251l1.6328-1.6323L51.5,48.3706l-1.6182,1.6323v-0.2881v-0.3359l1.6328-1.584L51.5,46.5469l-1.6182,1.6318
				v-0.3359v-0.2881l1.6328-1.6318L51.5,44.7227l-1.6182,1.6323v-0.3364V45.731l1.6328-1.6323L51.5,42.8989l-1.6182,1.584v-0.2881
				v-0.2881l1.6328-1.6318L51.5,41.0269l-1.6182,1.6318v-0.2881v-0.2881l1.6328-1.6318L51.5,39.2026l-1.6182,1.6323v-0.2881v-0.2881
				l1.6328-1.6318L51.5,37.3789l-1.6182,1.6318v-0.2881v-0.2881l1.6328-1.6318L51.5,35.5547l-1.6182,1.6318v-0.2876v-0.2881
				l1.6328-1.6318L51.5,33.731l-1.6182,1.6318v-0.2881v-0.2881l1.6328-1.6318L51.5,31.9067l-1.6182,1.6318V33.251v-0.3364
				l1.6328-1.584L51.5,30.0825l-1.6182,1.6323v-0.3359v-0.2881l1.6328-1.6318L51.5,28.2588l-1.6182,1.584v-0.2881v-0.2881
				l1.6328-1.6318v-1.248l-0.0635,0.0962l-1.5693,1.5356V27.731v-0.2881l0.96-0.96l0.6729-0.6724v-0.96h-0.2529l-1.3877,1.3442
				l-0.2402,0.2881h-0.3359h-0.2881l0.8643-0.8643l0.8164-0.7681h-1.248l-1.6807,1.6323h-0.2881h-0.2881l1.6807-1.6323h-0.625
				v-0.6719l-0.5283,0.5762l-1.1045,1.0557v-0.2876v-0.2881l0.4805-0.48l1.1523-1.1523v-2.2559h3.2656h6.7734h16.7646V34.355
				h-2.1611l-1.6807,1.6797H70.915H70.627l1.6328-1.6797h-0.6719v-0.5283l-1.6328,1.6323v-0.2881V34.835l1.6328-1.584v-1.248
				l-1.6328,1.6318v-0.2881v-0.3359l1.6328-1.6318v-1.2002l-1.6328,1.6318v-0.3359v-0.2881l1.6328-1.6318V28.355l-1.6328,1.584
				v-0.2881v-0.2881l1.6328-1.6318v-1.248l-1.6328,1.6318v-0.2881v-0.2881l1.6328-1.6318v-1.0562h-0.1924l-1.6328,1.6323h-0.2881
				h-0.2881l1.6328-1.6323h-1.249l-1.6328,1.6323h-0.2881h-0.3359l1.6807-1.6323h-1.248l-1.6328,1.6323h-0.3359h-0.2881
				l1.6807-1.6323h-1.249l-1.6328,1.6323h-0.3359h-0.2881l1.6807-1.6323h-1.248l-1.6816,1.6323H62.127h-0.2881l1.6807-1.6323h-1.248
				l-1.6807,1.6323h-0.2881h-0.2881l1.6328-1.6323h-1.2012l-1.6807,1.6323h-0.2881h-0.2881l1.6328-1.6323h-1.2002l-1.6807,1.6323
				h-0.2881h-0.2881l0.2881-0.2881l1.3438-1.3442h-1.2686l-0.0977,0.0962l-1.5615,1.5361h-0.0977v9.8877h6.1445l0.4346-0.4316
				v-2.832h3.458v10.0317h-2.7373l-0.624,0.5762l-1.0566,1.0562h-0.2881h-0.2881l1.6328-1.6323h0.0479h-0.1445v-1.1519
				l-1.6328,1.6318v-0.2881V43.043l1.5371-1.5361l0.0957-0.0962v-1.248l-1.3447,1.3442l-0.2881,0.2881v-0.2881h-0.2881
				l0.2881-0.2881l1.3447-1.3438h-1.2002l-0.1445,0.0957l-1.5361,1.5361h-0.2881h-0.2881l1.6328-1.6318h-1.249l-1.6328,1.6318
				h-0.2881h-0.2881l1.6328-1.6318h-1.2715l-1.3701,1.3438v10.1758h3.2754h11.7031v-0.0479l1.6377-1.6318v-1.248l-1.6328,1.6318
				v-0.2881v-0.3359l1.6328-1.584v-1.248l-1.6328,1.6323V47.939v-0.2881l1.6328-1.6323v-1.1997l-1.6328,1.584v-0.2881v-0.2881
				l1.0566-1.0557h0.2881h0.2881v-1.6323h3.457v11.7603h-2.5928l-1.6328,1.6318h-0.2881h-0.2881l1.6328-1.6318h-1.249
				l-1.6328,1.6318h-0.2881h-0.3359l1.6807-1.6318h-1.248l-1.6328,1.6318h-0.2881h-0.3369l1.6816-1.6318h-1.249l-1.6328,1.6318
				h-0.3359h-0.2881l1.6807-1.6318h-1.249l-1.6807,1.6318h-0.2881h-0.2881l1.6807-1.6318h-1.248l-1.6807,1.6318h-0.2881h-0.2881
				l1.6328-1.6318h-1.2012l-1.6807,1.6318h-0.2881h-0.2881l1.6328-1.6318h-1.2002l-1.6816,1.6318H57.709h-0.2881l1.6328-1.6318
				h-0.7686h-0.4795L56.6533,56.0508z M47.3369,23.0269h0.2881l-1.0088,0.96v-0.2881v-0.2881l0.3848-0.3838H47.3369z
				 M46.6162,53.0747h0.2402l-0.2402,0.1919V53.0747z M51.5,50.1948l-1.1895,1.1997h1.2041L51.5,50.1948z M54.9717,26.0029
				l1.2012-1.1523h-1.2012V26.0029z M54.9717,40.6426l0.8164-0.7676h-0.8164V40.6426z M59.918,35.7466l0.9609-1.0078h0.2881h0.2881
				l-1.5371,1.584v-0.2881V35.7466z M62.127,44.771h-0.2881l1.585-1.5361v0.2881v0.2876L62.415,44.771H62.127z M71.5879,50.2905
				l-1.1523,1.104h1.1523V50.2905z M72.3564,56.5308h-0.2891l1.3447-1.3442v0.2881v0.2881l-0.7676,0.7681H72.3564z M72.7402,36.0347
				h-0.2881l0.96-1.0078v0.2881v0.3359l-0.3838,0.3838H72.7402z"/>
			<path fill="#171952" d="M83.3271,54.8989h-1.2549l-1.6875,1.6318h-0.29h-0.29l1.6885-1.6318h-1.2539l-1.6885,1.6318h-0.2881
				h-0.2881l1.6855-1.6318h-1.0615v-0.1924l-1.6328,1.6323v-0.3359v-0.2881l1.6328-1.6323v-2.688h2.6895l0.5762-0.5757l0.0156-1.248
				l-1.6484,1.6318v-0.2881V50.627l1.6328-1.6323l0.0156-1.248l-1.6484,1.6323v-0.2881v-0.2881l1.6328-1.6318l0.0156-1.248
				l-1.6484,1.6318v-0.2881V46.979l1.6328-1.6323l0.0156-1.248l-1.6484,1.6323v-0.2881v-0.2881l1.6328-1.6318l0.0156-1.248
				l-1.6484,1.6318v-0.2881v-0.2881l1.6328-1.6318l0.0156-1.248l-1.6484,1.6318v-0.2876v-0.2881l1.6328-1.6318l0.0156-1.248
				l-1.6484,1.6318l0.0078-0.2881l-0.0078-0.3359l1.6328-1.584l0.0156-1.248l-1.6484,1.6318l0.0078-0.2876l-0.0078-0.3364
				l1.6328-1.584l0.0156-1.2476l-1.6484,1.6318v-0.3359v-0.2881l1.6328-1.6318l0.0156-1.2002l-1.6484,1.584v-0.2881v-0.2881
				l1.6328-1.6318l0.0156-1.2002l-1.6484,1.584V32.627v-0.2881l1.6328-1.6323l0.0156-1.2476l-1.6484,1.6318v-0.2881v-0.2881
				l1.6328-1.6318l0.0156-1.248l-1.6484,1.6318V28.979v-0.2881l1.6328-1.6323l0.0156-1.248l-0.6787,0.7202l-0.9697,0.9121v-0.2881
				v-0.2881l0.3359-0.3276l1.2969-1.2651v-0.375H81l-0.7676,0.7461l-0.9131,0.8857h-0.2881h-0.2881l1.4961-1.4453l0.1934-0.1865
				h-1.2549l-1.6836,1.6318h-0.2881h-0.2402v-0.0479l1.6328-1.6147v-1.2349l-1.6328,1.6465v-0.2881v-0.2881l1.585-1.6543h0.0479
				v-1.6548h10.0361v3.5044h-1.7363l13.458,20.208l1.5322-1.4883l0.0166-1.248l-1.6494,1.6323v-0.2881v-0.2881l1.6328-1.6318
				l0.0166-1.248l-1.6494,1.6318v-0.2881v-0.2881l1.6328-1.6318l0.0166-1.248l-1.6494,1.6323l0.0078-0.2881l-0.0078-0.3359
				l1.6328-1.584l0.0166-1.248l-1.6494,1.6318v-0.3359v-0.2881l1.6328-1.6318l0.0166-1.2002l-1.6494,1.6318v-0.3359v-0.2881
				l1.6328-1.6318l0.0166-1.1997l-1.6494,1.584v-0.2881v-0.2881l1.6328-1.6318l0.0166-1.248l-1.6494,1.6318v-0.2881v-0.2881
				l1.6328-1.6318l0.0166-1.248l-1.6494,1.6318v-0.2876v-0.2881l1.6328-1.6318l0.0166-1.248l-1.6494,1.6318v-0.2881v-0.2881
				l1.6328-1.6318l0.0166-1.248l-0.582,0.624l-1.0674,1.0078V27.251v-0.2881l0.4326-0.4224l1.2002-1.1729v-0.4688h-0.7676
				l-0.8643,0.8389l-0.7676,0.793h-0.3359h-0.2881l1.3984-1.3521l0.29-0.2798h-1.2549l-1.6836,1.6318h-0.2881h-0.1924v-0.0962
				l1.6328-1.6147l0.001-1.2349l-1.6045,1.647v-0.2881v-0.2881l1.5088-1.6064h0.0947v-1.6548h10.0361v3.5044h-2.1914l-1.2656,1.2456
				v25.25h3.3135v3.5044h-2.7988l-1.6406,1.6318h-0.2891h-0.3379l1.6885-1.6318h-1.2549l-1.6396,1.6318h-0.29h-0.3379l1.6416-1.6318
				h0.0479h-1.2549l-0.5791,0.5278l-1.0615,1.104h-0.3379h-0.29l0.8691-0.8159l0.8203-0.8159h-1.2422l-0.2402,0.1919l-1.4336,1.4399
				h-0.2861H98.126l1.6504-1.6318H98.624v-0.0962l-1.6035,1.584v-0.2881v-0.2881l1.6035-1.6318v-1.2959l-0.0967-0.144
				l-0.0957-0.1919l0.1924-0.1919v-0.9604h0.96l0.4805-0.48l-0.4805-0.7197l-1.6563,1.6318l-0.0928-0.1919l-0.0928-0.144
				l1.6328-1.6802l-0.5283-0.7197l-1.6338,1.6318l-0.0967-0.1919l-0.1445-0.144l1.6328-1.6318l-0.4795-0.7681l-1.6338,1.6318
				l-0.1445-0.144L96.25,49.2827l1.6328-1.6318l-0.4805-0.7681l-1.6328,1.6318l-0.1445-0.144l-0.0957-0.1919l1.6328-1.6318
				l-0.4805-0.7681L95,47.4106l-0.0967-0.144l-0.0957-0.1919l1.6328-1.6318l-0.5283-0.7202l-1.6338,1.6323l-0.0957-0.1924
				l-0.1445-0.1919l1.6328-1.6318l-0.4805-0.7202l-1.6328,1.6323l-0.0967-0.1924l-0.1445-0.1919l1.6328-1.6318l-0.4805-0.7202
				l-1.6328,1.6323l-0.1445-0.1924l-0.0957-0.144l1.6328-1.6797l-0.4805-0.7202l-1.6338,1.6323l-0.1445-0.1924l-0.0967-0.144
				l1.6328-1.6318l-0.5283-0.7681l-1.6328,1.6323l-0.0967-0.1924l-0.1445-0.144l1.6328-1.6318l-0.4805-0.7681L90.623,40.835
				l-0.0967-0.144l-0.1436-0.1924l1.6328-1.6318l-0.4805-0.7681l-1.6338,1.6323l-0.1445-0.144l-0.0957-0.1924l1.6328-1.6318
				l-0.4805-0.7681l-1.6338,1.6802l-0.1436-0.1919l-0.0967-0.1924l1.6328-1.6318l-0.5283-0.7197l-1.6123,1.6318l-0.0918-0.1919
				l-0.1396-0.1924l1.6816-1.6318l-0.5283-0.7197l-1.6357,1.6318l-0.0957-0.1919l-0.1445-0.144l1.6328-1.6802l-0.4805-0.7197
				l-1.6348,1.6318l-0.1455-0.1919l-0.0967-0.144l1.6328-1.6323l-0.4805-0.7676l-1.6348,1.6318l-0.1445-0.1919l-0.0967-0.144
				l1.6328-1.6323l-0.5283-0.7676l-1.6602,1.6318l-0.1016-0.144l-0.0508-0.0479v18.4316h3.3135v3.5044h-1.6396v0.2397v0.2881
				l-1.0625,1.104h-0.2891h-0.3379l1.6895-1.6318h-1.2549l-1.6406,1.6318h-0.29h-0.3379l1.6895-1.6318h-1.2549l-1.6406,1.6318
				h-0.3379h-0.29L83.3271,54.8989z M77.0137,23.0493h0.3359l-0.3838,0.3838V23.145v-0.0957H77.0137z M78.0703,53.0747h0.3359
				l-1.4404,1.3921v-0.2881v-0.2881l0.8164-0.8159H78.0703z M85.3213,29.0747l0.0967-0.0957l-0.0967-0.144V29.0747z
				 M85.3213,29.6509l0.0322,1.248l0.7842-0.8164l-0.4795-0.7676L85.3213,29.6509z M85.3213,32.7227l1.585-1.5361l-0.5283-0.7676
				l-1.0566,1.0557V32.7227z M97.9336,53.0747h0.3369h0.2881l-1.5381,1.4883v-0.2881v-0.2881L97.9336,53.0747z M97.2129,23.0493
				h0.2881l-0.3359,0.3359v-0.2881v-0.0479H97.2129z M100.4004,51.3945l-0.0957-0.0957l-0.1445,0.0957H100.4004z M101.8887,44.1948
				l-1.2959,1.2959l0.5283,0.7202l0.7676-0.7681V44.1948z M101.3604,46.5947l0.4805,0.7202l0.0479-0.0483l0.0166-1.248
				L101.3604,46.5947z M105.3467,25.5229l0.707-0.624h-0.707V25.5229z M105.7656,56.5308h-0.29l1.5918-1.584v0.2881v0.2881
				l-1.0127,1.0078H105.7656z M106.5371,26.5308h-0.2891l0.916-0.96v0.2881v0.2881l-0.3379,0.3838H106.5371z"/>
			<path fill="#171952" d="M133.8232,26.1948l7.3477,25.1997h3.6973v3.5044h-1.6328v0.2876l-1.3447,1.3442h-0.2881h-0.2881
				l1.6328-1.6318h-1.2002l-1.6807,1.6318h-0.2881h-0.2891l1.6328-1.6318h-1.2002l-1.6807,1.6318h-0.2881h-0.2881l1.6328-1.6318
				h-1.249l-1.6328,1.6318h-0.2881h-0.2881l1.4404-1.4399l0.1924-0.1919h-1.248l-1.6328,1.6318h-0.2881h-0.2881l1.6328-1.6318
				h-0.8164v-0.48l-0.3369,0.3838l-1.2959,1.248v-0.2881v-0.2881l0.7197-0.6719l0.9131-0.96v-2.4482h0.624l1.6328-1.584
				l-0.2881-0.96l-1.6328,1.6323l-0.0967-0.2402l-0.0479-0.2397l1.6328-1.6323l-0.2881-0.96l-1.6328,1.6323l-0.0479-0.2402
				l-0.0957-0.1919l1.6328-1.6318l-0.2402-0.9604l-1.6328,1.6323l-0.0967-0.2402l-0.0479-0.2397l1.6328-1.6323l-0.1914-0.6719
				h-0.3848l-0.7686,0.8159l-0.5762,0.5283l-0.2881,0.2876h-0.2881h-0.3359l0.7686-0.7197l0.7197-0.7202l0.1924-0.1919h-1.248
				l-1.6328,1.6318h-0.3369h-0.2881l1.6807-1.6318h-1.248l-1.6328,1.6318h-0.3359h-0.2881l1.6807-1.6318h-1.249l-1.6807,1.6318
				h-0.2881h-0.2881l1.6807-1.6318h-1.248l-1.6807,1.6318h-0.2881h-0.2891l1.6328-1.6318h-1.2002l-1.6807,1.6318h-0.2881h-0.2881
				l1.6328-1.6318h-1.1807l-1.6523,1.6318h-0.2891h-0.2881l1.6328-1.6318h-1.248l-1.3027,1.2959l-1.5439,5.2319h2.7021v3.5044
				h-2.5566l-1.6416,1.6318h-0.2891h-0.3379l1.6895-1.6318h-1.2549l-1.6406,1.6318h-0.3369h-0.29l1.3506-1.3442l0.3379-0.2876
				h-1.2549h-0.0479l-1.6406,1.6318h-0.2891h-0.29l1.6895-1.6318h-1.2559l-1.6895,1.6318h-0.2881h-0.2881l1.6875-1.6318h-1.2559
				l-1.6807,1.6318h-0.0957v-0.1919v-0.2881l1.249-1.248l0.3838-0.3838v-1.248l-1.6328,1.6318v-0.2881v-0.2881l1.1523-1.1519h0.2881
				h0.1924v-1.6802h3.04l0.9648-0.96l0.4824-1.728l-1.5928,1.584l0.0967-0.3838l0.1455-0.4321l1.5918-1.6318l0.5313-1.728
				l-1.6406,1.6318l0.1445-0.4316l0.1445-0.4321l1.5928-1.584l0.5303-1.7759l-1.6406,1.6318l0.1455-0.4321l0.0967-0.4321
				l1.6396-1.584l0.5313-1.7759l-1.6406,1.6323l0.0967-0.4321l0.1445-0.3843l1.6406-1.6318l0.4824-1.728l-1.5918,1.584
				l0.0967-0.4321l0.1445-0.3838l1.5918-1.6318l0.5313-1.728l-1.6416,1.584l0.1455-0.3843l0.0967-0.4316l1.6396-1.6323l0.5313-1.728
				l-1.6406,1.6323l0.1445-0.4321l0.0967-0.4321l1.6416-1.584l0.4824-1.7759l-1.5938,1.6318l0.0977-0.4321l0.1445-0.4316
				l1.5918-1.584l0.4805-1.7764l-1.5898,1.6323l0.1445-0.4321l0.0967-0.3838l1.6367-1.6323l0.5283-1.7759l-1.0566,1.0562
				l-0.5762,0.5757l0.1445-0.4316l0.0479-0.144h-0.1924l0.2402-0.2402l1.3447-1.3921h-1.2012l-1.6396,1.6323h-0.29h-0.2891
				l1.6406-1.6323h-0.7236v-0.5757l-0.4346,0.48l-1.1582,1.1519v-0.2881v-0.2881l0.5752-0.5757l1.0059-1.0562v-2.3521h15v3.5039
				h-2.6895l0.2881,0.9121l0.8164-0.8159v0.2881v0.2881L133.8232,26.1948z M116.0557,51.2988l-0.1445,0.0957h0.0957
				L116.0557,51.2988z M119.6924,56.5308h-0.29l1.3516-1.3442v0.2881v0.2881l-0.7725,0.7681H119.6924z M120.2715,23.0269h0.2891
				l-1.0615,1.0557v-0.2876v-0.2881l0.4824-0.48H120.2715z M121.4287,45.3467l0.4824-0.48h-0.3369L121.4287,45.3467z
				 M127.21,25.5229l-4.624,15.8398h10.0898l1.4834-1.4878l-0.2402-0.9604l-1.6328,1.6323l-0.0957-0.2402l-0.0479-0.1919
				l1.6328-1.6318l-0.2881-0.96l-1.6328,1.6318l-0.0479-0.2402l-0.0967-0.2397l1.6328-1.6318l-0.2881-0.9604l-1.6328,1.6323
				l-0.0479-0.2402l-0.0479-0.1919l1.6328-1.6318l-0.2881-0.96l-1.6328,1.6318l-0.0967-0.2402l-0.0479-0.2397l1.6328-1.6318
				l-0.2881-0.96l-1.6328,1.6318l-0.0479-0.2402l-0.0957-0.1919l1.6328-1.6318l-0.2881-0.96l-1.6328,1.6318l-0.0479-0.2397
				l-0.0488-0.2402l1.6328-1.6318l-0.2881-0.96l-1.6328,1.6318l-0.0957-0.2402l-0.0479-0.1919l1.6328-1.6318l-0.2881-0.96
				l-1.6328,1.6318l-0.0479-0.2397l-0.0967-0.2402l1.6807-1.6318l-0.2881-0.96l-1.6328,1.6318l-0.0957-0.2397l-0.0479-0.1924
				l1.6328-1.6318l-0.2881-0.96l-0.2881,0.2881l-1.3447,1.3438l-0.0479-0.2397l-0.0967-0.2402l0.8643-0.8638l0.7686-0.7681
				l-0.2402-0.8643h-0.0957l-1.585,1.5361l-0.0957,0.0962h-0.2881h-0.2881l0.5762-0.5283l1.0566-1.104h0.0479h-1.2393
				L127.21,25.5229z M134.1113,53.0747h0.2881l-1.2002,1.1519V53.939v-0.2881l0.624-0.5762H134.1113z M134.5918,41.3149
				l-0.2881-0.96l-1.0566,1.0078h1.248L134.5918,41.3149z M137.1846,50.2427l-1.1045,1.1519h1.2002l0.1924-0.1919L137.1846,50.2427z
				 M143.2354,56.5308h-0.0957l0.0957-0.0962V56.5308z"/>
			<path fill="#171952" d="M143.5244,24.2266v-2.8799h23.5303v11.7603h-2.5449l-1.6328,1.6318h-0.2881h-0.2881l1.6328-1.6318
				h-0.3359v-0.8643l-1.6328,1.6323v-0.3364V33.251l1.6328-1.6323v-1.1997l-1.6328,1.584v-0.2881v-0.2881l1.6328-1.6318v-1.248
				l-1.6328,1.6318v-0.2881v-0.2881l1.6328-1.6318v-1.248l-1.6328,1.6323v-0.2881v-0.2881l1.6328-1.6318v-1.248l-1.6328,1.6318
				v-0.0479h-0.2402h-0.2881l1.6328-1.6323h-1.249l-1.6328,1.6323h-0.2881h-0.3359l1.6807-1.6323h-1.248l-1.6328,1.6323h-0.3359
				h-0.2891l1.6816-1.6323h-1.249l-1.1523,1.104v25.4399h3.3135v3.5044h-1.6328v0.2397v0.2881l-1.1523,1.104h-0.2881h-0.2881
				l1.6807-1.6318h-1.249l-1.6807,1.6318h-0.2881h-0.2881l1.6807-1.6318h-1.248l-1.6807,1.6318h-0.2891h-0.2881l1.6328-1.6318
				h-1.2002l-1.6807,1.6318h-0.2881h-0.2881l1.6328-1.6318h-1.249l-1.6328,1.6318h-0.2881h-0.2881l1.6328-1.6318h-1.0088v-0.2402
				l-1.6318,1.6318v-0.2876v-0.2881l1.6318-1.6323v-2.688h2.6895l0.5762-0.5757v-1.248l-1.6328,1.6318v-0.2881v-0.3359l1.6328-1.584
				v-1.248l-1.6328,1.6323V49.043v-0.2881l1.6328-1.6323v-1.1997l-1.6328,1.584v-0.2881v-0.2881l1.6328-1.6318v-1.248
				l-1.6328,1.6318v-0.2881v-0.2876l1.6328-1.6323v-1.248l-1.6328,1.6323v-0.2881v-0.2881l1.6328-1.6318v-1.248l-1.6328,1.6318
				v-0.2881V41.459l1.6328-1.6323v-1.248l-1.6328,1.6323v-0.2881v-0.2881l1.6328-1.6318v-1.248l-1.6328,1.6318v-0.2881v-0.2881
				l1.6328-1.6318v-1.248l-1.6328,1.6323v-0.2881V35.939l1.6328-1.584v-1.248l-1.6328,1.6318v-0.3359v-0.2881l1.6328-1.6318v-1.2002
				l-1.6328,1.584v-0.2881v-0.2881l1.6328-1.6318v-1.248l-1.6328,1.6323v-0.2881v-0.2881l1.6328-1.6318v-1.248l-1.6328,1.6318
				v-0.2881v-0.2881l1.6328-1.6318v-1.248l-0.7197,0.7202l-0.9131,0.9116v-0.2876v-0.2881l0.3369-0.3359l1.2959-1.2964v-0.3359
				h-0.8643l-0.7686,0.7202l-0.9121,0.9121h-0.2881h-0.2881l1.4883-1.4883l0.1445-0.144h-1.249l-1.6328,1.6323h-0.2881h-0.2881
				l1.6328-1.6323h-1.2666l-1.6572,1.6323h-0.293h-0.0488v6.624h-2.6162l-1.6172,1.6318h-0.333h-0.2852l1.6826-1.6318h-0.2881
				l-0.0146-0.96l-1.6182,1.6318v-0.3359v-0.2881l1.6328-1.6318l-0.0146-1.2002l-1.6182,1.584v-0.2881v-0.2881l1.6328-1.6318
				l-0.0146-1.248l-1.6182,1.6318v-0.2876v-0.2881l1.6328-1.6318l-0.0146-1.248l-1.6182,1.6318v-0.2881v-0.2881l1.6328-1.6318
				v-1.248l-1.6328,1.6318V26.147v-0.2881L143.5244,24.2266z M143.2246,23.0269h0.2852l-1.6182,1.584v-0.2881v-0.2881l1.0469-1.0078
				H143.2246z M144.2705,34.7388h-0.333l1.4268-1.3921v0.2881v0.2881l-0.8086,0.8159H144.2705z M146.9814,26.2427l1.4414-1.3921
				h-1.292l-0.1494,0.144V26.2427z M148.6631,53.8906v0.2881v0.2881l1.3926-1.3921h-0.2881h-0.2881L148.6631,53.8906z
				 M157.0186,25.3789l0.5762-0.5283h-0.5762V25.3789z M164.4141,34.7388h-0.2881l1.2959-1.2959v0.2881v0.2876l-0.7197,0.7202
				H164.4141z"/>
			<path fill="#171952" d="M179.0605,56.0508l-0.4805,0.48h-0.2881h-0.2881l1.0566-1.0562l0.5762-0.5757h-1.2617l-1.6504,1.6318
				h-0.291h-0.291l1.6689-1.6318h-1.2549l-1.6426,1.6318h-0.2891h-0.3379l1.665-1.6318h-1.2363l-1.6182,1.6318h-0.333h-0.2852
				l1.667-1.6318h-0.2393h-1l-0.6191,0.5757l-1.0566,1.0562h-0.2881h-0.2881l1.6328-1.6318h0.0479h-1.2471l-1.6807,1.6318h-0.2881
				h-0.0967v-0.1919l1.5371-1.5361l0.0957-0.0962V53.459l-1.3447,1.3438l-0.2881,0.2881v-0.2881v-0.2881l1.4404-1.4399h0.1924
				v-1.6802h1.6328V51.251l1.6328-1.6323l-0.0146-1.248l-1.6182,1.6323v-0.2881v-0.3359l1.6328-1.584l-0.0146-1.248l-1.6182,1.6318
				v-0.3359v-0.2881l1.6328-1.6318l-0.0146-1.2002l-1.6182,1.6323v-0.3364V45.731l1.6328-1.6323l-0.0146-1.1997l-1.6182,1.584
				v-0.2881v-0.2881l1.6328-1.6318l-0.0146-1.248l-1.6182,1.6318v-0.2881v-0.2881l1.6328-1.6318l-0.0146-1.248l-1.6182,1.6323
				v-0.2881v-0.2881l1.6328-1.6318l-0.0146-1.248l-1.6182,1.6318v-0.2881v-0.2881l1.6328-1.6318l-0.0146-1.248l-1.6182,1.6318
				v-0.2876v-0.2881l1.6328-1.6318l-0.0146-1.248l-1.6182,1.6318v-0.2881v-0.2881l1.6328-1.6318l-0.0146-1.248l-1.6182,1.6318
				V33.251v-0.3364l1.6328-1.584l-0.0146-1.248l-1.6182,1.6323v-0.3359v-0.2881l1.6328-1.6318l-0.0146-1.2002l-1.6182,1.584v-0.2881
				v-0.2881l1.6328-1.6318v-1.248l-0.0635,0.0962l-1.5693,1.5356V27.731v-0.2881l0.96-0.96l0.6729-0.6724v-0.96h-0.2529
				l-1.3877,1.3442l-0.2402,0.2881h-0.3359h-0.2881l0.8643-0.8643l0.8164-0.7681h-1.248l-1.6807,1.6323h-0.2881h-0.2881
				l1.6807-1.6323h-0.625v-0.6719l-0.5283,0.5762l-1.1045,1.0557v-0.2876v-0.2881l0.4805-0.48l1.1523-1.1523v-2.2559h3.2656h6.7734
				h16.7646V34.355h-2.1611l-1.6807,1.6797h-0.2881h-0.2881l1.6328-1.6797h-0.6719v-0.5283l-1.6328,1.6323v-0.2881V34.835
				l1.6328-1.584v-1.248l-1.6328,1.6318v-0.2881v-0.3359l1.6328-1.6318v-1.2002l-1.6328,1.6318v-0.3359v-0.2881l1.6328-1.6318
				V28.355l-1.6328,1.584v-0.2881v-0.2881l1.6328-1.6318v-1.248l-1.6328,1.6318v-0.2881v-0.2881l1.6328-1.6318v-1.0562h-0.1924
				l-1.6328,1.6323h-0.2881h-0.2881l1.6328-1.6323h-1.249l-1.6328,1.6323h-0.2881h-0.3359l1.6807-1.6323h-1.248l-1.6328,1.6323
				h-0.3359h-0.2881l1.6807-1.6323h-1.249l-1.6328,1.6323h-0.3359h-0.2881l1.6807-1.6323h-1.248l-1.6816,1.6323h-0.2881h-0.2881
				l1.6807-1.6323h-1.248l-1.6807,1.6323H182.71h-0.2881l1.6328-1.6323h-1.2012l-1.6807,1.6323h-0.2881h-0.2881l1.6328-1.6323
				h-1.2002l-1.6807,1.6323h-0.2881h-0.2881l0.2881-0.2881l1.3438-1.3442h-1.2686l-0.0977,0.0962l-1.5615,1.5361h-0.0977v9.8877
				h6.1445l0.4346-0.4316v-2.832h3.458v10.0317h-2.7373l-0.624,0.5762l-1.0566,1.0562H182.71h-0.2881l1.6328-1.6323h0.0479h-0.1445
				v-1.1519l-1.6328,1.6318v-0.2881V43.043l1.5371-1.5361l0.0957-0.0962v-1.248l-1.3447,1.3442l-0.2881,0.2881v-0.2881h-0.2881
				l0.2881-0.2881l1.3447-1.3438h-1.2002l-0.1445,0.0957l-1.5361,1.5361h-0.2881h-0.2881l1.6328-1.6318h-1.249l-1.6328,1.6318
				h-0.2881h-0.2881l1.6328-1.6318h-1.2715l-1.3701,1.3438v10.1758h3.2754h11.7031v-0.0479l1.6377-1.6318v-1.248l-1.6328,1.6318
				v-0.2881v-0.3359l1.6328-1.584v-1.248l-1.6328,1.6323V47.939v-0.2881l1.6328-1.6323v-1.1997l-1.6328,1.584v-0.2881v-0.2881
				l1.0566-1.0557h0.2881h0.2881v-1.6323h3.457v11.7603h-2.5928l-1.6328,1.6318h-0.2881h-0.2881l1.6328-1.6318h-1.249
				l-1.6328,1.6318h-0.2881h-0.3359l1.6807-1.6318h-1.248l-1.6328,1.6318h-0.2881h-0.3369l1.6816-1.6318h-1.249l-1.6328,1.6318
				h-0.3359h-0.2881l1.6807-1.6318h-1.249l-1.6807,1.6318h-0.2881h-0.2881l1.6807-1.6318h-1.248l-1.6807,1.6318h-0.2881h-0.2881
				l1.6328-1.6318h-1.2012l-1.6807,1.6318h-0.2881h-0.2881l1.6328-1.6318h-1.2002l-1.6816,1.6318h-0.2881h-0.2881l1.6328-1.6318
				h-0.7686h-0.4795L179.0605,56.0508z M169.7441,23.0269h0.2881l-1.0088,0.96v-0.2881v-0.2881l0.3848-0.3838H169.7441z
				 M169.0234,53.0747h0.2402l-0.2402,0.1919V53.0747z M173.9072,50.1948l-1.1895,1.1997h1.2041L173.9072,50.1948z
				 M177.3789,26.0029l1.2012-1.1523h-1.2012V26.0029z M177.3789,40.6426l0.8164-0.7676h-0.8164V40.6426z M182.3252,35.7466
				l0.9609-1.0078h0.2881h0.2881l-1.5371,1.584v-0.2881V35.7466z M184.5342,44.771h-0.2881l1.585-1.5361v0.2881v0.2876
				l-1.0088,0.9604H184.5342z M193.9951,50.2905l-1.1523,1.104h1.1523V50.2905z M194.7637,56.5308h-0.2891l1.3447-1.3442v0.2881
				v0.2881l-0.7676,0.7681H194.7637z M195.1475,36.0347h-0.2881l0.96-1.0078v0.2881v0.3359l-0.3838,0.3838H195.1475z"/>
		</g>
		<g>
			<path fill="#171952" d="M22.1445,74.2729c0-0.3867,0.0098-0.7725,0-1.1592c-0.02-0.7422-0.0498-1.4951-0.0596-2.2471
				c-0.0098-0.3467,0.2773-0.624,0.624-0.6143c0.3364,0.0098,0.4751,0.208,0.4849,0.624c0.02,1.0098,0.0498,2.0195,0.0693,3.0303
				c0,0.5244-0.0293,1.0391-0.0396,1.5645c0,0.5645-0.0195,1.1289,0,1.6836c0.0103,0.3164-0.1089,0.5146-0.396,0.6035
				c-0.2969,0.0898-0.5049-0.0791-0.624-0.3164c-0.2671-0.5352-0.5146-1.0898-0.7725-1.6338
				c-0.2178-0.4756-0.4556-0.9414-0.6733-1.416c-0.1089-0.2383-0.1782-0.4854-0.3267-0.7236
				c-0.0098,0.1289-0.0298,0.2578-0.0298,0.3867c0.0098,1.0596,0.02,2.1191,0.02,3.1787c0,0.3467-0.2378,0.6143-0.5249,0.624
				c-0.3169,0.0098-0.5742-0.248-0.5742-0.6143c0-1.416,0-2.8418,0-4.2686v-2.0098c0-0.2871,0.0098-0.5645,0.3364-0.6836
				c0.3071-0.0986,0.5942,0.0303,0.7822,0.3662c0.1387,0.2383,0.2476,0.4951,0.3467,0.7432
				c0.396,0.9707,0.7822,1.9512,1.1685,2.9209C22.0156,74.2925,22.085,74.2827,22.1445,74.2729z"/>
			<path fill="#171952" d="M26.0044,70.2329c0.3765,0.0195,0.7529,0.0488,1.1289,0.0693c0.3467,0.0195,0.6836,0.0293,1.0303,0.0684
				c0.2573,0.0303,0.396,0.208,0.376,0.4658c-0.0195,0.2578-0.1387,0.4561-0.4355,0.4658
				c-0.3564,0.0195-0.7129,0.0195-1.0693,0.0195h-0.6733c-0.0103,0.3271-0.0298,0.624-0.0498,1.0098
				c0.3862,0.0205,0.7627,0.0596,1.1489,0.0596c0.4951-0.0098,0.7622,0.1387,0.7725,0.4658
				c0.0195,0.3369-0.2871,0.5547-0.7427,0.5449h-1.1787c0,1.0098,0,2,0,3.04h1.3071c0.1289,0,0.2578-0.0205,0.3862,0
				c0.3667,0.0293,0.5151,0.2568,0.4653,0.6826c-0.0493,0.3467-0.1782,0.3965-0.5742,0.377c-0.7427-0.0205-1.4951,0-2.2378,0
				c-0.1387,0-0.2876,0.0098-0.416-0.04c-0.4556-0.168-0.4556-0.6143-0.02-0.9805v-3.7432c0-0.376,0.0498-0.7529,0.0396-1.1289
				c-0.0098-0.1191-0.2671-0.2275-0.3267-0.3467c-0.0791-0.1387-0.1187-0.3467-0.0693-0.4258
				c0.0991-0.208,0.1484-0.3662,0.3267-0.5146c0.0991-0.0693,0.3965-0.0596,0.5249-0.0889H26.0044z"/>
			<path fill="#171952" d="M33.3311,74.6792c-0.2876,0.8418-0.5645,1.6143-0.8223,2.3965c-0.1387,0.416-0.3169,0.584-0.6831,0.5645
				c-0.3169-0.0205-0.4653-0.2178-0.5547-0.6543c-0.188-0.8613-0.4058-1.7227-0.584-2.5938
				c-0.2676-1.248-0.5054-2.4961-0.7529-3.7441c-0.0396-0.2275,0.0298-0.4053,0.2773-0.4648
				c0.3169-0.0889,0.6436,0.0498,0.7329,0.3662c0.1582,0.5547,0.2969,1.1191,0.4258,1.6738
				c0.2178,0.9111,0.416,1.8223,0.6831,2.7432c0.208-0.5947,0.416-1.1885,0.6143-1.7832c0.0396-0.1182,0.0693-0.2373,0.1089-0.3662
				c0.0991-0.3066,0.3267-0.4756,0.6533-0.4551c0.3071,0.0098,0.4063,0.2275,0.4951,0.4854
				c0.208,0.6436,0.4458,1.2773,0.6934,1.9805c0.0991-0.4355,0.1982-0.792,0.2676-1.1592c0.188-1.0195,0.376-2.04,0.5742-3.0596
				c0.0693-0.3662,0.2378-0.5049,0.5151-0.4756c0.3364,0.0195,0.5645,0.2373,0.5347,0.5947
				c-0.0298,0.3457-0.1187,0.6826-0.1782,1.0293c-0.0298,0.2178-0.0596,0.4463-0.0991,0.6641
				c-0.188,0.9404-0.4653,1.8809-0.5547,2.832c-0.0493,0.6533-0.3267,1.248-0.3662,1.8916c-0.02,0.3164-0.188,0.4854-0.4854,0.5342
				c-0.3071,0.04-0.4751-0.1289-0.5645-0.3955c-0.2773-0.793-0.5547-1.585-0.832-2.377L33.3311,74.6792z"/>
			<path fill="#171952" d="M44.6265,75.3325c0-0.9307,0.02-1.8516,0.02-2.7725c-0.0098-0.3867-0.0396-0.7725-0.0298-1.1592
				c0.0098-0.2969,0.0396-0.6035,0.1387-0.8809c0.0889-0.2676,0.3364-0.3564,0.624-0.2578c0.2769,0.0889,0.396,0.3066,0.3662,0.6143
				c-0.02,0.2275,0,0.4648,0,0.6934c0,0.415,0.0098,0.8213,0.0098,1.2373c0,0.3867,0,0.7725-0.0098,1.1592
				c0,0.2568,0.0098,0.5146,0,0.7725c0,0.1484-0.0298,0.2969-0.0098,0.4453c0.0693,0.6934-0.0103,1.3867-0.416,1.9609
				c-0.188,0.2568-0.5347,0.4648-0.8618,0.5742c-0.9307,0.3262-2.0596-0.0996-2.436-1.0107
				c-0.2573-0.623-0.1582-1.1875-0.0991-1.7822c0.0298-0.2568,0.208-0.3955,0.4854-0.3662c0.3369,0.0293,0.5747,0.208,0.5845,0.4854
				c0.0098,0.2676-0.0098,0.5449-0.02,0.8223c-0.0195,0.6035,0.6538,1.0986,1.1685,0.8115c0.2378-0.1289,0.3667-0.5049,0.4854-0.792
				c0.0596-0.1582-0.0098-0.3662-0.0098-0.5547H44.6265z"/>
			<path fill="#171952" d="M48.4966,70.2329c0.3765,0.0195,0.7529,0.0488,1.1289,0.0693c0.3467,0.0195,0.6836,0.0293,1.0303,0.0684
				c0.2573,0.0303,0.396,0.208,0.376,0.4658c-0.0195,0.2578-0.1387,0.4561-0.4355,0.4658
				c-0.3564,0.0195-0.7129,0.0195-1.0693,0.0195h-0.6733c-0.0103,0.3271-0.0298,0.624-0.0498,1.0098
				c0.3862,0.0205,0.7627,0.0596,1.1489,0.0596c0.4951-0.0098,0.7622,0.1387,0.7725,0.4658
				c0.0195,0.3369-0.2871,0.5547-0.7427,0.5449h-1.1787c0,1.0098,0,2,0,3.04h1.3071c0.1289,0,0.2578-0.0205,0.3862,0
				c0.3667,0.0293,0.5151,0.2568,0.4653,0.6826c-0.0493,0.3467-0.1782,0.3965-0.5742,0.377c-0.7427-0.0205-1.4951,0-2.2378,0
				c-0.1387,0-0.2876,0.0098-0.416-0.04c-0.4556-0.168-0.4556-0.6143-0.02-0.9805v-3.7432c0-0.376,0.0498-0.7529,0.0396-1.1289
				c-0.0098-0.1191-0.2671-0.2275-0.3267-0.3467c-0.0791-0.1387-0.1187-0.3467-0.0693-0.4258
				c0.0991-0.208,0.1484-0.3662,0.3267-0.5146c0.0991-0.0693,0.3965-0.0596,0.5249-0.0889H48.4966z"/>
			<path fill="#171952" d="M56.4966,74.9858c0.0298,0.7227,0.0791,1.4063,0.0889,2.0898c0,0.4453-0.2773,0.7324-0.6235,0.7031
				c-0.3271-0.0205-0.5249-0.3271-0.5151-0.7432c0.0098-0.4355,0-0.8711,0-1.3467h-1.0991c0,0.4756-0.02,0.9512,0,1.416
				c0.0195,0.3066-0.1685,0.6143-0.4854,0.6836c-0.2378,0.0498-0.5347-0.1289-0.604-0.416
				c-0.0596-0.2676-0.0596-0.5449-0.0596-0.8125c0-0.2871,0.02-0.5742,0.0298-0.8516c-0.1089-0.0693-0.188-0.1084-0.2573-0.1582
				c-0.2974-0.2275-0.3467-0.624-0.0498-0.8418c0.2378-0.1777,0.2974-0.3965,0.3071-0.6436c0.0098-0.9209,0-1.8418,0-2.7236
				c-0.0493-0.0596-0.0693-0.0791-0.0894-0.0889c-0.4155-0.1582-0.584-0.376-0.5049-0.6738
				c0.0693-0.3066,0.3564-0.4551,0.7725-0.4355c0.6436,0.0205,1.2876,0.0303,1.9214,0.0303
				c0.5742-0.0098,1.3169,0.6631,1.3267,1.2373c0.02,0.6338,0.02,1.2676,0.0298,1.9014c0,0.2871,0.0098,0.585-0.0195,0.8613
				C56.6353,74.4614,56.5459,74.728,56.4966,74.9858z M54.3374,74.5601c0.228,0,0.4556,0.0098,0.6738,0
				c0.376-0.0195,0.5742-0.2275,0.5742-0.6045c-0.0098-0.7324,0-1.4648-0.0396-2.1982c-0.0103-0.1582-0.1191-0.3955-0.2476-0.4453
				c-0.3169-0.1289-0.6538-0.1484-0.9609,0V74.5601z"/>
			<path fill="#171952" d="M60.0503,77.7886c-1.0991-0.1094-1.9512-0.7227-1.9707-2.0205c0-0.2871,0.0195-0.5742,0.0195-0.8613
				c0-0.3467,0.1885-0.5645,0.5054-0.5947c0.2476-0.0098,0.5249,0.2188,0.5645,0.5156c0.0195,0.2178-0.0103,0.4258,0,0.6436
				c0.0195,0.208,0.0195,0.4258,0.0889,0.624c0.1089,0.3955,0.436,0.6133,0.812,0.6035c0.4658-0.0098,0.8521-0.2471,0.8813-0.6631
				c0.0498-0.5254,0.0298-1.0791-0.0693-1.5947c-0.0889-0.4648-0.3564-0.5547-0.8418-0.584
				c-0.6436-0.04-1.2871-0.1191-1.6831-0.7529c-0.4258-0.6934-0.3369-1.3965,0.0098-2.04c0.1582-0.2969,0.5444-0.5342,0.8813-0.6631
				c0.7227-0.2871,1.4756-0.1582,2.1787,0.1387c0.4653,0.1885,0.7524,0.7822,0.6831,1.2773
				c-0.0493,0.3369-0.2773,0.5449-0.584,0.5449c-0.3271-0.0098-0.4658-0.208-0.4854-0.5156c0-0.0488-0.0098-0.0986-0.0298-0.1387
				c-0.1387-0.3564-0.9604-0.4844-1.4951-0.2275c-0.2974,0.1484-0.436,0.6738-0.2476,0.9902
				c0.1582,0.2578,0.4058,0.3174,0.6929,0.2773c0.8418-0.1182,1.9409,0.6641,2.0796,1.5059
				c0.0693,0.416,0.0796,0.8418,0.1191,1.2676c0,0.0889,0,0.168,0.0098,0.2568C62.2783,76.8179,61.1196,77.8872,60.0503,77.7886z"/>
			<path fill="#171952" d="M64.9106,70.2329c0.3765,0.0195,0.7529,0.0488,1.1289,0.0693c0.3467,0.0195,0.6836,0.0293,1.0303,0.0684
				c0.2573,0.0303,0.396,0.208,0.376,0.4658c-0.0195,0.2578-0.1387,0.4561-0.4355,0.4658
				c-0.3564,0.0195-0.7129,0.0195-1.0693,0.0195h-0.6733c-0.0103,0.3271-0.0298,0.624-0.0498,1.0098
				c0.3862,0.0205,0.7627,0.0596,1.1489,0.0596c0.4951-0.0098,0.7622,0.1387,0.7725,0.4658
				c0.0195,0.3369-0.2871,0.5547-0.7427,0.5449h-1.1787c0,1.0098,0,2,0,3.04h1.3071c0.1289,0,0.2578-0.0205,0.3862,0
				c0.3667,0.0293,0.5151,0.2568,0.4653,0.6826c-0.0493,0.3467-0.1782,0.3965-0.5742,0.377c-0.7427-0.0205-1.4951,0-2.2378,0
				c-0.1387,0-0.2876,0.0098-0.416-0.04c-0.4556-0.168-0.4556-0.6143-0.02-0.9805v-3.7432c0-0.376,0.0498-0.7529,0.0396-1.1289
				c-0.0098-0.1191-0.2671-0.2275-0.3267-0.3467c-0.0791-0.1387-0.1187-0.3467-0.0693-0.4258
				c0.0991-0.208,0.1484-0.3662,0.3267-0.5146c0.0991-0.0693,0.3965-0.0596,0.5249-0.0889H64.9106z"/>
			<path fill="#171952" d="M71.1875,75.6597c0,0.4355,0.0103,0.8516-0.0098,1.2773c-0.0098,0.1875-0.0591,0.416-0.1782,0.5439
				c-0.1089,0.0996-0.3662,0.1689-0.5049,0.1094c-0.1484-0.0596-0.3169-0.2676-0.3467-0.4355
				c-0.0791-0.4756-0.0894-0.9707-0.1387-1.5059c-0.0991-0.0293-0.2773-0.0791-0.4556-0.1484
				c-0.5742-0.2178-0.9507-0.6436-1.1587-1.208c-0.0396-0.1084-0.0591-0.2178-0.0591-0.3369
				c0.0098-1.1084,0.0293-2.2178,0.0195-3.3271c0-0.2871,0.1782-0.3564,0.3765-0.4355c0.208-0.0986,0.4453-0.1387,0.5742,0.0889
				c0.0991,0.1689,0.1685,0.3662,0.1782,0.5547c0.0498,0.7129,0.0791,1.4258,0.0894,2.1289c0,0.2773-0.0693,0.5547-0.0693,0.8223
				c-0.0103,0.4355,0.1782,0.6738,0.604,0.7031c0.416,0.0293,0.8315-0.0098,1.2476-0.04c0.2578-0.0195,0.3765-0.1875,0.3765-0.4355
				c0.0098-0.8213,0.0098-1.6436,0.02-2.4658c0-0.3564-0.0103-0.7227,0.0591-1.0693c0.0298-0.1387,0.2676-0.3066,0.4063-0.3066
				c0.188,0,0.4355,0.0986,0.5347,0.2471c0.1187,0.1689,0.1187,0.4258,0.1289,0.6436c0.0195,0.8516,0.0293,1.6934,0.0195,2.5449
				c-0.0098,0.9912-0.2573,1.6045-1.436,1.9707C71.3857,75.6099,71.2969,75.6294,71.1875,75.6597z"/>
			<path fill="#171952" d="M79.5527,75.3521c0,0.6641-0.0098,1.2188,0,1.7725c0,0.2383-0.0396,0.416-0.3267,0.4365
				c-0.4063,0.0293-0.6934-0.0996-0.7427-0.3672c-0.02-0.0889-0.0103-0.1777-0.0103-0.2568
				c-0.0098-1.8818-0.0298-3.7539-0.0298-5.625c0-0.3066,0.0498-0.624,0.0991-0.9307c0.0498-0.2578,0.2378-0.3672,0.5054-0.3369
				c0.3169,0.0293,0.5444,0.2275,0.5444,0.5244c0,0.3369-0.0396,0.6738-0.0396,1.0107c0.02,0.7617,0.0693,1.5244,0.0791,2.2773
				C79.6318,74.3921,79.5728,74.936,79.5527,75.3521z"/>
			<path fill="#171952" d="M84.0381,74.2729c0-0.3867,0.0098-0.7725,0-1.1592c-0.02-0.7422-0.0498-1.4951-0.0596-2.2471
				c-0.0098-0.3467,0.2773-0.624,0.624-0.6143c0.3364,0.0098,0.4751,0.208,0.4849,0.624c0.02,1.0098,0.0498,2.0195,0.0693,3.0303
				c0,0.5244-0.0293,1.0391-0.0396,1.5645c0,0.5645-0.0195,1.1289,0,1.6836c0.0103,0.3164-0.1089,0.5146-0.396,0.6035
				c-0.2969,0.0898-0.5049-0.0791-0.624-0.3164c-0.2671-0.5352-0.5146-1.0898-0.7725-1.6338
				c-0.2178-0.4756-0.4556-0.9414-0.6733-1.416c-0.1089-0.2383-0.1782-0.4854-0.3267-0.7236
				c-0.0098,0.1289-0.0298,0.2578-0.0298,0.3867c0.0098,1.0596,0.02,2.1191,0.02,3.1787c0,0.3467-0.2378,0.6143-0.5249,0.624
				c-0.3169,0.0098-0.5742-0.248-0.5742-0.6143c0-1.416,0-2.8418,0-4.2686v-2.0098c0-0.2871,0.0098-0.5645,0.3364-0.6836
				c0.3071-0.0986,0.5942,0.0303,0.7822,0.3662c0.1387,0.2383,0.2476,0.4951,0.3467,0.7432
				c0.396,0.9707,0.7822,1.9512,1.1685,2.9209C83.9092,74.2925,83.9785,74.2827,84.0381,74.2729z"/>
			<path fill="#171952" d="M88.7202,77.7886c-1.0991-0.1094-1.9512-0.7227-1.9707-2.0205c0-0.2871,0.0195-0.5742,0.0195-0.8613
				c0-0.3467,0.1885-0.5645,0.5054-0.5947c0.2476-0.0098,0.5249,0.2188,0.5645,0.5156c0.0195,0.2178-0.0103,0.4258,0,0.6436
				c0.0195,0.208,0.0195,0.4258,0.0889,0.624c0.1089,0.3955,0.436,0.6133,0.812,0.6035c0.4658-0.0098,0.8521-0.2471,0.8813-0.6631
				c0.0498-0.5254,0.0298-1.0791-0.0693-1.5947c-0.0889-0.4648-0.3564-0.5547-0.8418-0.584
				c-0.6436-0.04-1.2871-0.1191-1.6831-0.7529c-0.4258-0.6934-0.3369-1.3965,0.0098-2.04c0.1582-0.2969,0.5444-0.5342,0.8813-0.6631
				c0.7227-0.2871,1.4756-0.1582,2.1787,0.1387c0.4653,0.1885,0.7524,0.7822,0.6831,1.2773
				c-0.0493,0.3369-0.2773,0.5449-0.584,0.5449c-0.3271-0.0098-0.4658-0.208-0.4854-0.5156c0-0.0488-0.0098-0.0986-0.0298-0.1387
				c-0.1387-0.3564-0.9604-0.4844-1.4951-0.2275c-0.2974,0.1484-0.436,0.6738-0.2476,0.9902
				c0.1582,0.2578,0.4058,0.3174,0.6929,0.2773c0.8418-0.1182,1.9409,0.6641,2.0796,1.5059
				c0.0693,0.416,0.0796,0.8418,0.1191,1.2676c0,0.0889,0,0.168,0.0098,0.2568C90.9482,76.8179,89.7896,77.8872,88.7202,77.7886z"/>
			<path fill="#171952" d="M93.0859,71.3315c-0.3965-0.0195-0.7231-0.0391-1.04-0.0498c-0.396,0-0.6533-0.208-0.6636-0.5439
				c0-0.3076,0.2378-0.5352,0.6338-0.5352c0.5151,0,1.04,0.0498,1.5649,0.0596c0.3662,0,0.7427-0.04,1.1089-0.0498
				c0.228-0.0098,0.4458-0.0098,0.6733,0.0098c0.3169,0.0303,0.4756,0.1885,0.4756,0.4561
				c0.0098,0.3467-0.1982,0.6035-0.5151,0.6143c-0.3662,0.0098-0.7427,0-1.1685,0c0,0.7324-0.0098,1.3857,0,2.0498v3.2871
				c0,0.1289-0.0098,0.2676,0,0.4063c0.0098,0.3867-0.1484,0.6338-0.4458,0.6533c-0.3169,0.04-0.5942-0.208-0.6138-0.5938
				c-0.0396-0.4658-0.0396-0.9307-0.0396-1.3965c0-0.7324,0.0195-1.4658,0.0195-2.1982
				C93.0859,72.7974,93.0859,72.0942,93.0859,71.3315z"/>
			<path fill="#171952" d="M98.3818,75.3521c0,0.6641-0.0098,1.2188,0,1.7725c0,0.2383-0.0396,0.416-0.3267,0.4365
				c-0.4063,0.0293-0.6934-0.0996-0.7427-0.3672c-0.02-0.0889-0.0103-0.1777-0.0103-0.2568
				c-0.0098-1.8818-0.0298-3.7539-0.0298-5.625c0-0.3066,0.0498-0.624,0.0991-0.9307c0.0498-0.2578,0.2378-0.3672,0.5054-0.3369
				c0.3169,0.0293,0.5444,0.2275,0.5444,0.5244c0,0.3369-0.0396,0.6738-0.0396,1.0107c0.02,0.7617,0.0693,1.5244,0.0791,2.2773
				C98.4609,74.3921,98.4019,74.936,98.3818,75.3521z"/>
			<path fill="#171952" d="M101.5996,71.3315c-0.3965-0.0195-0.7231-0.0391-1.04-0.0498c-0.396,0-0.6533-0.208-0.6636-0.5439
				c0-0.3076,0.2378-0.5352,0.6338-0.5352c0.5151,0,1.04,0.0498,1.5649,0.0596c0.3662,0,0.7427-0.04,1.1089-0.0498
				c0.228-0.0098,0.4458-0.0098,0.6733,0.0098c0.3169,0.0303,0.4756,0.1885,0.4756,0.4561
				c0.0098,0.3467-0.1982,0.6035-0.5151,0.6143c-0.3662,0.0098-0.7427,0-1.1685,0c0,0.7324-0.0098,1.3857,0,2.0498v3.2871
				c0,0.1289-0.0098,0.2676,0,0.4063c0.0098,0.3867-0.1484,0.6338-0.4458,0.6533c-0.3169,0.04-0.5942-0.208-0.6138-0.5938
				c-0.0396-0.4658-0.0396-0.9307-0.0396-1.3965c0-0.7324,0.0195-1.4658,0.0195-2.1982
				C101.5996,72.7974,101.5996,72.0942,101.5996,71.3315z"/>
			<path fill="#171952" d="M110.2725,73.9858c0,0.7227-0.0098,1.4453-0.04,2.1689c-0.0293,0.4355-0.2676,0.8018-0.5938,1.0596
				c-1.0693,0.8115-2.6343,0.8213-3.5059-0.3672c-0.0889-0.1279-0.168-0.2871-0.188-0.4453
				c-0.0693-0.624-0.0298-1.2676-0.0791-1.9014c-0.0298-0.4854-0.0796-0.9707-0.0796-1.4561c0-0.7422,0.02-1.4951,0.0498-2.2373
				c0.0195-0.3867,0.2773-0.6143,0.604-0.5742c0.3369,0.0293,0.5347,0.3164,0.5049,0.7031c-0.0195,0.207,0,0.4258,0,0.6338
				c0,0.7324,0,1.4746,0.0103,2.208c0.0098,0.6836-0.0103,1.376,0.0591,2.0498c0.0894,0.8125,0.9609,1.0693,1.6245,0.7227
				c0.0791-0.0391,0.1484-0.0693,0.2275-0.1182c0.2373-0.1592,0.3174-0.3174,0.2969-0.5645
				c-0.0195-0.4854-0.0098-0.9707-0.0098-1.4561c0.0098-0.5947,0.0303-1.1885,0.0498-1.793c0-0.0693,0.0098-0.1484,0.0098-0.2178
				c0-0.8115-0.0195-1.0889-0.0498-1.6338c-0.0195-0.376,0.1787-0.5547,0.5645-0.5449c0.3564,0.0205,0.5449,0.2285,0.5449,0.5752
				C110.2725,71.8667,110.2822,72.9263,110.2725,73.9858z"/>
			<path fill="#171952" d="M113.4102,71.3315c-0.3965-0.0195-0.7227-0.0391-1.04-0.0498c-0.3955,0-0.6533-0.208-0.6631-0.5439
				c0-0.3076,0.2373-0.5352,0.6328-0.5352c0.5156,0,1.041,0.0498,1.5654,0.0596c0.3662,0,0.7432-0.04,1.1084-0.0498
				c0.2285-0.0098,0.4463-0.0098,0.6738,0.0098c0.3164,0.0303,0.4756,0.1885,0.4756,0.4561
				c0.0098,0.3467-0.1982,0.6035-0.5146,0.6143c-0.3672,0.0098-0.7432,0-1.1689,0c0,0.7324-0.0098,1.3857,0,2.0498v3.2871
				c0,0.1289-0.0098,0.2676,0,0.4063c0.0098,0.3867-0.1484,0.6338-0.4463,0.6533c-0.3164,0.04-0.5938-0.208-0.6133-0.5938
				c-0.0391-0.4658-0.0391-0.9307-0.0391-1.3965c0-0.7324,0.0195-1.4658,0.0195-2.1982
				C113.4102,72.7974,113.4102,72.0942,113.4102,71.3315z"/>
			<path fill="#171952" d="M118.7559,70.2329c0.376,0.0195,0.752,0.0488,1.1289,0.0693c0.3457,0.0195,0.6836,0.0293,1.0293,0.0684
				c0.2578,0.0303,0.3965,0.208,0.377,0.4658s-0.1387,0.4561-0.4355,0.4658c-0.3574,0.0195-0.7129,0.0195-1.0703,0.0195h-0.6729
				c-0.0107,0.3271-0.0303,0.624-0.0498,1.0098c0.3867,0.0205,0.7627,0.0596,1.1484,0.0596
				c0.4961-0.0098,0.7627,0.1387,0.7734,0.4658c0.0195,0.3369-0.2871,0.5547-0.7432,0.5449h-1.1787c0,1.0098,0,2,0,3.04h1.3066
				c0.1289,0,0.2578-0.0205,0.3867,0c0.3672,0.0293,0.5156,0.2568,0.4648,0.6826c-0.0488,0.3467-0.1777,0.3965-0.5742,0.377
				c-0.7422-0.0205-1.4941,0-2.2373,0c-0.1387,0-0.2881,0.0098-0.416-0.04c-0.4561-0.168-0.4561-0.6143-0.0205-0.9805v-3.7432
				c0-0.376,0.0508-0.7529,0.04-1.1289c-0.0098-0.1191-0.2666-0.2275-0.3271-0.3467c-0.0781-0.1387-0.1182-0.3467-0.0684-0.4258
				c0.0986-0.208,0.1484-0.3662,0.3262-0.5146c0.0996-0.0693,0.3965-0.0596,0.5254-0.0889H118.7559z"/>
			<path fill="#171952" d="M130.9238,74.3228c0,0.4453,0.0098,0.9004-0.0107,1.3467c-0.0195,0.2676-0.0889,0.5342-0.1084,0.8018
				c-0.04,0.6934-0.5059,1.1787-1.0801,1.2383c-0.2676,0.0195-0.2578,0.0391-0.2178,0.0488
				c-0.6045-0.0586-1.2373,0.0898-1.8018-0.2666c-0.5059-0.3271-0.793-0.7627-0.7832-1.3965c0-0.7529-0.0684-1.4951-0.0889-2.248
				c0-0.3174,0.0303-0.6436,0.04-0.9707c0-0.3564,0.0098-0.7227,0-1.0791c0-0.7129,0.623-1.4951,1.3467-1.5449
				c0.5342-0.04,1.0791,0.0098,1.6143,0.0889c0.4951,0.0791,1.0293,0.792,1.0693,1.2969v0.3369c0,0,0.0098,0,0.0205,0V74.3228z
				 M129.8047,71.9263c-0.0098-0.4463-0.2979-0.6934-0.7432-0.6338c-0.1387,0.0098-0.2676-0.0498-0.4365-0.0107
				c-0.4053,0.0996-0.5244,0.1094-0.6426,0.6338c-0.04,0.1592-0.0098,0.3271-0.0098,0.4854c0.0098,1.0107,0.0684,2.0303,0.0098,3.04
				c-0.0605,1.0205,0.0684,1.209,1.0986,1.1885c0.5244-0.0098,0.7139-0.168,0.7139-0.6924c0.0098-1.0996,0-2.1992,0-3.2979h0.0098
				V71.9263z M129.5469,77.769c0.0293,0-0.0098,0-0.04-0.0107L129.5469,77.769z"/>
			<path fill="#171952" d="M135.665,70.0542c0.0498,0.0195,0.0889,0.04,0.1387,0.0498c0.2676,0.0791,0.4756,0.2178,0.4561,0.5244
				c-0.0195,0.2773-0.2969,0.5352-0.5947,0.5449c-0.4355,0.0195-0.8818,0.0098-1.3174,0.0195h-0.4063
				c-0.0293,0.3662,0.0205,0.6934-0.0098,1.0898h0.7529c0.1191,0,0.2471-0.0098,0.3662,0.0195
				c0.2969,0.0498,0.5254,0.3467,0.4863,0.6338c-0.0303,0.2471-0.3076,0.4551-0.625,0.4453
				c-0.3164-0.0098-0.6328-0.0391-0.9707-0.0596v1.1191c0,0.3672,0.0107,0.7236,0.0107,1.0898
				c-0.0107,0.4551-0.0205,0.9111-0.04,1.376c-0.0195,0.3271-0.2275,0.4951-0.5938,0.4854
				c-0.2676-0.0098-0.4355-0.1982-0.4551-0.5146c-0.0107-0.3369,0.0586-0.6738,0.0391-1.0098
				c-0.0098-0.0498-0.0498-0.6934-0.0293-0.7432c0.0195-1-0.04-0.9609,0.0098-1.7432c-0.2676-0.2471-0.3574-0.4258-0.3672-0.624
				c0-0.1973,0.2188-0.416,0.3672-0.4648c0-0.2178,0.0586-0.2969,0.0586-0.4854c-0.0098-0.1787,0.04-0.4951-0.0293-0.6533
				c-0.0391-0.1094-0.248-0.1484-0.3164-0.2285c-0.1094-0.1279-0.0996-0.376-0.0605-0.5342
				c0.0303-0.1387,0.2188-0.3076,0.3672-0.3271c0.3262-0.0498,0.6738-0.0098,1.0195-0.0195
				c0.4854-0.0195,0.9609,0.0391,1.4463,0.0098H135.665z"/>
			<path fill="#171952" d="M142.9414,71.3315c-0.3965-0.0195-0.7227-0.0391-1.04-0.0498c-0.3955,0-0.6533-0.208-0.6631-0.5439
				c0-0.3076,0.2373-0.5352,0.6328-0.5352c0.5156,0,1.041,0.0498,1.5654,0.0596c0.3662,0,0.7432-0.04,1.1084-0.0498
				c0.2285-0.0098,0.4463-0.0098,0.6738,0.0098c0.3164,0.0303,0.4756,0.1885,0.4756,0.4561
				c0.0098,0.3467-0.1982,0.6035-0.5146,0.6143c-0.3672,0.0098-0.7432,0-1.1689,0c0,0.7324-0.0098,1.3857,0,2.0498v3.2871
				c0,0.1289-0.0098,0.2676,0,0.4063c0.0098,0.3867-0.1484,0.6338-0.4463,0.6533c-0.3164,0.04-0.5938-0.208-0.6133-0.5938
				c-0.0391-0.4658-0.0391-0.9307-0.0391-1.3965c0-0.7324,0.0195-1.4658,0.0195-2.1982
				C142.9414,72.7974,142.9414,72.0942,142.9414,71.3315z"/>
			<path fill="#171952" d="M148.2871,70.2329c0.376,0.0195,0.752,0.0488,1.1289,0.0693c0.3457,0.0195,0.6836,0.0293,1.0293,0.0684
				c0.2578,0.0303,0.3965,0.208,0.377,0.4658s-0.1387,0.4561-0.4355,0.4658c-0.3574,0.0195-0.7129,0.0195-1.0703,0.0195h-0.6729
				c-0.0107,0.3271-0.0303,0.624-0.0498,1.0098c0.3867,0.0205,0.7627,0.0596,1.1484,0.0596
				c0.4961-0.0098,0.7627,0.1387,0.7734,0.4658c0.0195,0.3369-0.2871,0.5547-0.7432,0.5449h-1.1787c0,1.0098,0,2,0,3.04h1.3066
				c0.1289,0,0.2578-0.0205,0.3867,0c0.3672,0.0293,0.5156,0.2568,0.4648,0.6826c-0.0488,0.3467-0.1777,0.3965-0.5742,0.377
				c-0.7422-0.0205-1.4941,0-2.2373,0c-0.1387,0-0.2881,0.0098-0.416-0.04c-0.4561-0.168-0.4561-0.6143-0.0205-0.9805v-3.7432
				c0-0.376,0.0508-0.7529,0.04-1.1289c-0.0098-0.1191-0.2666-0.2275-0.3271-0.3467c-0.0781-0.1387-0.1182-0.3467-0.0684-0.4258
				c0.0986-0.208,0.1484-0.3662,0.3262-0.5146c0.0996-0.0693,0.3965-0.0596,0.5254-0.0889H148.2871z"/>
			<path fill="#171952" d="M152.4141,74.9165c0-0.7529,0.0195-1.4951-0.0098-2.248c-0.0293-0.9609,0.2383-1.7725,1.1387-2.2383
				c1.4658-0.752,2.8721,0.5156,2.9609,1.7334c0.0303,0.3271-0.2471,0.5938-0.584,0.6045
				c-0.2871,0.0098-0.5254-0.2383-0.5449-0.5645c-0.0488-0.624-0.4746-0.9609-1.0986-0.8721
				c-0.416,0.0596-0.8115,0.6641-0.7432,1.0693c0.04,0.2383,0.04,0.4756,0.04,0.7031c-0.0107,0.624-0.0205,1.2578-0.04,1.8818
				c0,0.1582,0,0.3271-0.0195,0.4756c-0.0996,0.5449,0.2578,1.0791,0.792,1.1787c0.4854,0.0791,1.0107-0.2979,1.0693-0.832
				c0.0303-0.3564,0.0303-0.7334-0.0391-1.0898c-0.0596-0.3564,0.1289-0.5547,0.3662-0.7129
				c0.1191-0.0693,0.3467-0.0498,0.4854,0.0098c0.2676,0.1191,0.3164,0.3564,0.2969,0.6338c-0.0195,0.208-0.0195,0.4258,0,0.6338
				c0.1094,0.9512-0.208,1.7432-1.0195,2.2188c-0.3867,0.2178-0.9707,0.2676-1.416,0.1875
				c-0.9902-0.168-1.5645-0.9209-1.6348-1.9502C152.3945,75.4614,152.4141,75.1938,152.4141,74.9165z"/>
			<path fill="#171952" d="M160.9688,73.4907h-1.4648c-0.0107,0.1777-0.0205,0.3066-0.0205,0.4355v2.9609
				c0,0.416-0.2969,0.7227-0.6338,0.6836c-0.3662-0.04-0.5352-0.3662-0.5146-0.7725c0.0498-0.7129,0.04-1.4258,0.0498-2.1396
				c0-0.3262,0-0.6533-0.0205-0.9697c-0.0098-0.1191-0.0596-0.2578-0.1279-0.3467c-0.2383-0.2578-0.1387-0.4951-0.0205-0.7529
				c0.0889-0.1787,0.1191,0,0.1387-0.4453c0.0303-0.4463,0.0098-0.9014,0.0303-1.3467c0.0098-0.1494,0.0391-0.2979,0.0986-0.4365
				c0.0889-0.2178,0.2568-0.3359,0.5049-0.3066c0.2578,0.0293,0.4355,0.168,0.4648,0.4258c0.04,0.2969,0.0508,0.5938,0.0605,0.8916
				v1.0293c0.2773-0.0391,0.4941-0.0986,0.7129-0.0986c0.2168,0.0098,0.4355,0.0693,0.7227,0.1191c0-0.416-0.0098-0.7725,0-1.1396
				c0.0098-0.2969,0.0293-0.5938,0.0791-0.8906c0.04-0.2178,0.1982-0.3867,0.4561-0.3467c0.2676,0.0293,0.4746,0.1582,0.5146,0.4258
				c0.0596,0.4258,0.0889,0.8711,0.0889,1.3066c0.0098,0.3271-0.1289,0.7139,0.208,0.9512
				c0.0986,0.0791,0.1689,0.2773,0.1387,0.4551c-0.0303,0.1592-0.3271,0.3672-0.3271,0.5254c0,0.9707,0.0098,1.9404,0.0195,2.9111
				c0,0.1582-0.0391,0.3174-0.0586,0.4854c-0.04,0.248-0.1191,0.4658-0.4453,0.4561c-0.3174,0-0.585-0.1885-0.6348-0.4756
				c-0.0195-0.1094-0.0195-0.2275-0.0195-0.3369c0-0.9502,0-1.9014,0-2.8516V73.4907z"/>
			<path fill="#171952" d="M166.8398,74.2729c0-0.3867,0.0098-0.7725,0-1.1592c-0.0195-0.7422-0.0498-1.4951-0.0596-2.2471
				c-0.0098-0.3467,0.2773-0.624,0.624-0.6143c0.3359,0.0098,0.4746,0.208,0.4844,0.624c0.0205,1.0098,0.0508,2.0195,0.0703,3.0303
				c0,0.5244-0.0293,1.0391-0.04,1.5645c0,0.5645-0.0195,1.1289,0,1.6836c0.0107,0.3164-0.1084,0.5146-0.3955,0.6035
				c-0.2969,0.0898-0.5059-0.0791-0.625-0.3164c-0.2666-0.5352-0.5137-1.0898-0.7715-1.6338
				c-0.2188-0.4756-0.4561-0.9414-0.6738-1.416c-0.1094-0.2383-0.1777-0.4854-0.3262-0.7236
				c-0.0098,0.1289-0.0303,0.2578-0.0303,0.3867c0.0098,1.0596,0.0205,2.1191,0.0205,3.1787c0,0.3467-0.2383,0.6143-0.5254,0.624
				c-0.3164,0.0098-0.5742-0.248-0.5742-0.6143c0-1.416,0-2.8418,0-4.2686v-2.0098c0-0.2871,0.0098-0.5645,0.3359-0.6836
				c0.3076-0.0986,0.5947,0.0303,0.7832,0.3662c0.1387,0.2383,0.2471,0.4951,0.3457,0.7432
				c0.3965,0.9707,0.7832,1.9512,1.1689,2.9209C166.7109,74.2925,166.7803,74.2827,166.8398,74.2729z"/>
			<path fill="#171952" d="M173.6309,74.3228c0,0.4453,0.0098,0.9004-0.0098,1.3467c-0.0195,0.2676-0.0889,0.5342-0.1094,0.8018
				c-0.0391,0.6934-0.5039,1.1787-1.0781,1.2383c-0.2676,0.0195-0.2578,0.0391-0.2188,0.0488
				c-0.6035-0.0586-1.2383,0.0898-1.8027-0.2666c-0.5039-0.3271-0.791-0.7627-0.7813-1.3965c0-0.7529-0.0703-1.4951-0.0898-2.248
				c0-0.3174,0.0293-0.6436,0.04-0.9707c0-0.3564,0.0098-0.7227,0-1.0791c0-0.7129,0.624-1.4951,1.3467-1.5449
				c0.5352-0.04,1.0801,0.0098,1.6143,0.0889c0.4951,0.0791,1.0303,0.792,1.0693,1.2969v0.3369c0,0,0.0098,0,0.0195,0V74.3228z
				 M172.5117,71.9263c-0.0098-0.4463-0.2969-0.6934-0.7422-0.6338c-0.1387,0.0098-0.2676-0.0498-0.4355-0.0107
				c-0.4063,0.0996-0.5254,0.1094-0.6445,0.6338c-0.0391,0.1592-0.0098,0.3271-0.0098,0.4854
				c0.0098,1.0107,0.0703,2.0303,0.0098,3.04c-0.0586,1.0205,0.0703,1.209,1.0996,1.1885c0.5254-0.0098,0.7129-0.168,0.7129-0.6924
				c0.0098-1.0996,0-2.1992,0-3.2979h0.0098V71.9263z M172.2549,77.769c0.0293,0-0.0107,0-0.04-0.0107L172.2549,77.769z"/>
			<path fill="#171952" d="M176.3535,76.6001c0.584,0,1.0889-0.0098,1.5938,0.0098c0.377,0.0098,0.6338,0.248,0.624,0.5645
				c-0.0098,0.3174-0.2871,0.5146-0.6533,0.5254c-0.6738,0.0195-1.3477,0.0391-2.0107,0.0791
				c-0.376,0.0195-0.624-0.1289-0.6338-0.5254c-0.0195-0.7227,0-1.4453,0.0098-2.1787c0-0.0986,0.0293-0.1982,0.0293-0.2969
				c-0.0986-1.3066-0.0586-2.3867-0.0098-3.5752c0.0098-0.168-0.0195-0.3467-0.0684-0.5146
				c-0.0703-0.2676,0.0488-0.3662,0.2969-0.4063c0.6436-0.1182,0.792-0.0195,0.8018,0.6543
				c0.0205,1.4053,0.0205,2.8223,0.0205,4.2383V76.6001z"/>
			<path fill="#171952" d="M184.2441,74.3228c0,0.4453,0.0098,0.9004-0.0098,1.3467c-0.0195,0.2676-0.0898,0.5342-0.1094,0.8018
				c-0.0391,0.6934-0.5049,1.1787-1.0791,1.2383c-0.2676,0.0195-0.2578,0.0391-0.2178,0.0488
				c-0.6045-0.0586-1.2383,0.0898-1.8027-0.2666c-0.5049-0.3271-0.792-0.7627-0.7822-1.3965c0-0.7529-0.0693-1.4951-0.0889-2.248
				c0-0.3174,0.0293-0.6436,0.0391-0.9707c0-0.3564,0.0098-0.7227,0-1.0791c0-0.7129,0.624-1.4951,1.3477-1.5449
				c0.5342-0.04,1.0791,0.0098,1.6133,0.0889c0.4961,0.0791,1.0303,0.792,1.0703,1.2969v0.3369c0,0,0.0098,0,0.0195,0V74.3228z
				 M183.125,71.9263c-0.0098-0.4463-0.2969-0.6934-0.7422-0.6338c-0.1387,0.0098-0.2676-0.0498-0.4365-0.0107
				c-0.4053,0.0996-0.5244,0.1094-0.6436,0.6338c-0.0391,0.1592-0.0098,0.3271-0.0098,0.4854
				c0.0098,1.0107,0.0693,2.0303,0.0098,3.04c-0.0596,1.0205,0.0693,1.209,1.0996,1.1885c0.5244-0.0098,0.7129-0.168,0.7129-0.6924
				c0.0098-1.0996,0-2.1992,0-3.2979h0.0098V71.9263z M182.8672,77.769c0.0293,0-0.0098,0-0.0391-0.0107L182.8672,77.769z"/>
			<path fill="#171952" d="M188.7979,74.5894c-0.1191-0.0098-0.2676,0.0107-0.3857-0.0293
				c-0.1787-0.0693-0.377-0.1582-0.5059-0.2871c-0.1777-0.1982-0.1387-0.4756,0.0898-0.6143
				c0.1777-0.1084,0.3955-0.1875,0.5938-0.1875c0.4551-0.0205,0.9014,0,1.3564,0.0293c0.3662,0.0195,0.5449,0.1582,0.585,0.416
				c0.0293,0.2969-0.1289,0.5645-0.4561,0.6338c-0.04,0-0.0693,0.0195-0.1484,0.0498c0,0.3564-0.0303,0.7324,0.0098,1.0986
				c0.0596,0.584-0.1084,1.1387-0.5742,1.4561c-0.0693,0.0498-0.1484,0.1387-0.2373,0.1582
				c-0.625,0.168-1.2578,0.2676-1.8926,0.1787c-0.5537-0.0801-1.2568-0.5947-1.2969-1.2383
				c-0.0195-0.3564-0.0684-0.7129-0.0791-1.0693c-0.0195-0.6338-0.0498-1.2676-0.0098-1.9014c0.04-0.5449-0.0195-1.0898,0-1.6338
				c0.04-0.8027,0.7432-1.6445,1.832-1.6143c0.2373,0.0098,0.4756,0,0.7129,0.0098c0.0889,0,0.1787,0,0.2578,0.0195
				c0.8018,0.2383,1.376,1.1289,1.2773,1.9512c-0.0498,0.3369-0.208,0.4951-0.4951,0.4951c-0.3066,0-0.584-0.2178-0.624-0.4951
				c-0.0098-0.0596-0.0098-0.1191-0.0098-0.1787c-0.0205-0.4648-0.1484-0.6133-0.6143-0.6934
				c-0.3457-0.0586-0.6836-0.0195-0.9902,0.1387c-0.1484,0.0693-0.2578,0.1787-0.2275,0.3467
				c0.1387,0.7529-0.0303,1.5059-0.0098,2.2686c0.0195,0.3955-0.0303,0.792-0.0205,1.1875
				c0.0098,0.3271,0.0605,0.6641,0.1191,0.9912c0.04,0.2178,0.2188,0.3457,0.4355,0.3457c0.2773,0.0107,0.5547,0.0107,0.832-0.0293
				c0.2969-0.04,0.4756-0.2676,0.4756-0.5742C188.8076,75.4214,188.7979,75.0259,188.7979,74.5894z"/>
			<path fill="#171952" d="M194.9658,75.6597c0,0.4355,0.0098,0.8516-0.0107,1.2773c-0.0098,0.1875-0.0586,0.416-0.1777,0.5439
				c-0.1094,0.0996-0.3662,0.1689-0.5049,0.1094c-0.1484-0.0596-0.3174-0.2676-0.3467-0.4355
				c-0.0791-0.4756-0.0898-0.9707-0.1387-1.5059c-0.0996-0.0293-0.2773-0.0791-0.4551-0.1484
				c-0.5742-0.2178-0.9512-0.6436-1.1592-1.208c-0.04-0.1084-0.0596-0.2178-0.0596-0.3369
				c0.0098-1.1084,0.0293-2.2178,0.0195-3.3271c0-0.2871,0.1787-0.3564,0.377-0.4355c0.208-0.0986,0.4453-0.1387,0.5742,0.0889
				c0.0996,0.1689,0.168,0.3662,0.1777,0.5547c0.0508,0.7129,0.0801,1.4258,0.0898,2.1289c0,0.2773-0.0693,0.5547-0.0693,0.8223
				c-0.0107,0.4355,0.1787,0.6738,0.6045,0.7031c0.416,0.0293,0.8311-0.0098,1.2471-0.04c0.2578-0.0195,0.376-0.1875,0.376-0.4355
				c0.0098-0.8213,0.0098-1.6436,0.0205-2.4658c0-0.3564-0.0107-0.7227,0.0596-1.0693c0.0293-0.1387,0.2676-0.3066,0.4063-0.3066
				c0.1875,0,0.4355,0.0986,0.5342,0.2471c0.1182,0.1689,0.1182,0.4258,0.1289,0.6436c0.0195,0.8516,0.0293,1.6934,0.0195,2.5449
				c-0.0098,0.9912-0.2568,1.6045-1.4365,1.9707C195.1641,75.6099,195.0742,75.6294,194.9658,75.6597z"/>
		</g>
	</g>
	<g>
	</g>
	<g>
	</g>
	<g>
	</g>
	<g>
	</g>
	<g>
	</g>
	<g>
	</g>
</g>
</svg>
